<svg width="21" height="22" viewBox="0 0 21 22" fill="none" xmlns="http://www.w3.org/2000/svg">
<g clip-path="url(#clip0_239_31)">
<path d="M13.8941 11.8453C13.8941 12.7093 13.5539 13.5378 12.9485 14.1487C12.3431 14.7596 11.522 15.1028 10.6658 15.1028C9.80966 15.1028 8.98855 14.7596 8.38315 14.1487C7.77774 13.5378 7.43762 12.7093 7.43762 11.8453C7.43762 10.9814 7.77774 10.1529 8.38315 9.54198C8.98855 8.93109 9.80966 8.58789 10.6658 8.58789C11.522 8.58789 12.3431 8.93109 12.9485 9.54198C13.5539 10.1529 13.8941 10.9814 13.8941 11.8453Z" fill="#6AA7CA"/>
<path d="M0.335571 11.8451C0.335571 11.8451 4.20943 4.67871 10.6659 4.67871C17.1223 4.67871 20.9962 11.8451 20.9962 11.8451C20.9962 11.8451 17.1223 19.0115 10.6659 19.0115C4.20943 19.0115 0.335571 11.8451 0.335571 11.8451ZM10.6659 16.4056C11.8645 16.4056 13.0141 15.9251 13.8616 15.0698C14.7092 14.2146 15.1854 13.0546 15.1854 11.8451C15.1854 10.6356 14.7092 9.47565 13.8616 8.6204C13.0141 7.76515 11.8645 7.28468 10.6659 7.28468C9.46723 7.28468 8.31767 7.76515 7.4701 8.6204C6.62253 9.47565 6.14637 10.6356 6.14637 11.8451C6.14637 13.0546 6.62253 14.2146 7.4701 15.0698C8.31767 15.9251 9.46723 16.4056 10.6659 16.4056Z" fill="#6AA7CA"/>
</g>
<defs>
<clipPath id="clip0_239_31">
<rect width="20.6606" height="20.9316" fill="white" transform="translate(0.335571 0.460938)"/>
</clipPath>
</defs>
</svg>
