<svg width="20" height="20" viewBox="0 0 20 20" fill="none" xmlns="http://www.w3.org/2000/svg">
<path d="M12.49 9.94C12.4744 9.28914 12.2055 8.67005 11.7405 8.21438C11.2755 7.75871 10.651 7.50242 10 7.5L12.49 9.94Z" fill="#6AA7CA"/>
<path d="M8.2 5.9C8.76482 5.64045 9.37841 5.5041 10 5.5C11.1935 5.5 12.3381 5.97411 13.182 6.81802C14.0259 7.66193 14.5 8.80653 14.5 10C14.4988 10.53 14.4005 11.0554 14.21 11.55L17 14.14C18.2456 12.9558 19.2626 11.5524 20 10C20 10 17 3 10 3C8.62119 2.99371 7.25711 3.28357 6 3.85L8.2 5.9ZM2 2L1 3L3.55 5.4C2.0556 6.66591 0.845796 8.23354 0 10C0 10 3 17 10 17C11.6194 17.008 13.2149 16.6091 14.64 15.84L18 19L19 18L2 2ZM10 14.5C8.80653 14.5 7.66193 14.0259 6.81802 13.182C5.97411 12.3381 5.5 11.1935 5.5 10C5.50552 9.227 5.71231 8.46877 6.1 7.8L7.63 9.24C7.54715 9.48497 7.50328 9.74142 7.5 10C7.49899 10.407 7.59776 10.8081 7.78767 11.168C7.97758 11.528 8.25284 11.836 8.58934 12.0649C8.92585 12.2939 9.31335 12.4368 9.71792 12.4813C10.1225 12.5258 10.5318 12.4704 10.91 12.32L12.45 13.77C11.7218 14.2467 10.8703 14.5004 10 14.5Z" fill="#6AA7CA"/>
</svg>
