<svg width="25" height="28" viewBox="0 0 25 28" fill="none" xmlns="http://www.w3.org/2000/svg">
<path d="M5.91621 12.9023C5.71759 12.9023 5.52711 12.9919 5.38666 13.1514C5.24622 13.3109 5.16732 13.5272 5.16732 13.7528V23.9593C5.16732 24.1849 5.24622 24.4012 5.38666 24.5607C5.52711 24.7202 5.71759 24.8098 5.91621 24.8098H19.3961C19.5947 24.8098 19.7852 24.7202 19.9256 24.5607C20.0661 24.4012 20.145 24.1849 20.145 23.9593V13.7528C20.145 13.5272 20.0661 13.3109 19.9256 13.1514C19.7852 12.9919 19.5947 12.9023 19.3961 12.9023H5.91621ZM5.91621 11.2012H19.3961C19.992 11.2012 20.5634 11.47 20.9847 11.9485C21.4061 12.427 21.6428 13.0761 21.6428 13.7528V23.9593C21.6428 24.636 21.4061 25.285 20.9847 25.7635C20.5634 26.2421 19.992 26.5109 19.3961 26.5109H5.91621C5.32036 26.5109 4.74891 26.2421 4.32758 25.7635C3.90626 25.285 3.66956 24.636 3.66956 23.9593V13.7528C3.66956 13.0761 3.90626 12.427 4.32758 11.9485C4.74891 11.47 5.32036 11.2012 5.91621 11.2012Z" fill="#79c3f4"/>
<path d="M12.6561 15.4534C12.8547 15.4534 13.0452 15.543 13.1856 15.7025C13.3261 15.862 13.405 16.0784 13.405 16.304V21.4072C13.405 21.6328 13.3261 21.8491 13.1856 22.0086C13.0452 22.1681 12.8547 22.2577 12.6561 22.2577C12.4575 22.2577 12.267 22.1681 12.1266 22.0086C11.9861 21.8491 11.9072 21.6328 11.9072 21.4072V16.304C11.9072 16.0784 11.9861 15.862 12.1266 15.7025C12.267 15.543 12.4575 15.4534 12.6561 15.4534ZM17.1494 11.2007V9.49963C17.1494 8.14617 16.676 6.84814 15.8333 5.8911C14.9907 4.93405 13.8478 4.39639 12.6561 4.39639C11.4644 4.39639 10.3215 4.93405 9.47886 5.8911C8.63621 6.84814 8.16281 8.14617 8.16281 9.49963V11.2007H17.1494ZM12.6561 2.69531C14.245 2.69531 15.7689 3.41219 16.8924 4.68825C18.016 5.96431 18.6472 7.69501 18.6472 9.49963V12.9018H6.66504V9.49963C6.66504 7.69501 7.29624 5.96431 8.41978 4.68825C9.54332 3.41219 11.0672 2.69531 12.6561 2.69531Z" fill="#79c3f4"/>
</svg>
