<svg width="804" height="553" viewBox="0 0 804 553" fill="none" xmlns="http://www.w3.org/2000/svg">
<path d="M15.8376 533.107C15.8376 536.42 18.5239 539.107 21.8376 539.107H372.932C376.246 539.107 378.932 536.42 378.932 533.107V60.5845C378.932 57.2708 376.246 54.5845 372.932 54.5845H21.8376C18.5239 54.5845 15.8376 57.2708 15.8376 60.5845V533.107Z" fill="url(#paint0_linear_239_41)"/>
<path d="M360.623 518.291H34.1514V70.0161H360.623V518.291Z" fill="white"/>
<g opacity="0.56">
<path d="M307.721 145.617L307.239 145.919L306.75 145.617C281.965 129.88 283.542 107.334 283.564 107.103L283.586 106.837L292.485 95.9236H321.986L330.892 106.837L330.914 107.103C330.929 107.334 332.513 129.88 307.721 145.617ZM334.228 106.434L323.285 92.7705H291.193L280.25 106.434C280.25 106.434 279.155 133.17 307.239 149.331C335.316 133.17 334.228 106.434 334.228 106.434Z" fill="url(#paint1_linear_239_41)"/>
<path d="M329.468 107.86L321.482 98.5566H293.774L285.781 107.86C285.7 110.206 285.737 128.799 307.628 142.263C329.512 128.799 329.556 110.206 329.468 107.86Z" fill="url(#paint2_linear_239_41)"/>
<mask id="mask0_239_41" style="mask-type:alpha" maskUnits="userSpaceOnUse" x="296" y="110" width="23" height="17">
<path fill-rule="evenodd" clip-rule="evenodd" d="M296.499 118.682L299.269 116.023L304.809 121.342L315.89 110.704L318.66 113.364L304.809 126.661L296.499 118.682Z" fill="white"/>
</mask>
<g mask="url(#mask0_239_41)">
<path d="M294.76 105.917H321.354V131.448H294.76V105.917Z" fill="white"/>
</g>
</g>
<rect opacity="0.4" x="59.3928" y="221.567" width="17.4966" height="14.9257" stroke="#BCBEC0" stroke-width="0.5"/>
<rect opacity="0.4" x="59.3928" y="244.706" width="17.4966" height="14.9257" stroke="#BCBEC0" stroke-width="0.5"/>
<rect opacity="0.4" x="59.3928" y="267.845" width="17.4966" height="14.9257" stroke="#BCBEC0" stroke-width="0.5"/>
<rect opacity="0.4" x="59.3928" y="221.567" width="17.4966" height="14.9257" stroke="#DFEFFF" stroke-width="0.5"/>
<rect opacity="0.4" x="59.3928" y="244.706" width="17.4966" height="14.9257" stroke="#DFEFFF" stroke-width="0.5"/>
<rect opacity="0.4" x="59.3928" y="267.845" width="17.4966" height="14.9257" stroke="#DFEFFF" stroke-width="0.5"/>
<rect opacity="0.4" x="59.3928" y="290.983" width="17.4966" height="14.9257" stroke="#DFEFFF" stroke-width="0.5"/>
<path opacity="0.4" d="M63.1603 224.529C63.1603 224.529 67.5891 229.689 68.0695 232.351C68.1273 232.469 69.8966 232.493 70.0702 232.623C70.9074 231.685 72.4987 228.981 75.7147 226.194C79.9255 222.52 84.6668 219.116 84.7409 219.088C84.7409 219.088 84.7762 219.081 84.7827 219.052C84.8311 218.913 84.2716 218.546 84.1397 218.606C83.3673 219.033 78.8455 221.465 75.0087 224.157C71.7738 226.43 69.0855 229.051 69.0855 229.051C69.0855 229.051 64.7753 224.413 64.1483 224.046C63.8232 224.213 63.4821 224.376 63.1603 224.529Z" fill="url(#paint3_linear_239_41)"/>
<path opacity="0.4" d="M63.1603 249.478C63.1603 249.478 67.5891 254.638 68.0695 257.3C68.1273 257.418 69.8966 257.442 70.0702 257.572C70.9074 256.635 72.4987 253.931 75.7147 251.143C79.9255 247.469 84.6668 244.065 84.7409 244.037C84.7409 244.037 84.7762 244.03 84.7827 244.001C84.8311 243.862 84.2716 243.495 84.1397 243.556C83.3673 243.982 78.8455 246.414 75.0087 249.106C71.7738 251.379 69.0855 254 69.0855 254C69.0855 254 64.7753 249.362 64.1483 248.995C63.8232 249.162 63.4821 249.325 63.1603 249.478Z" fill="url(#paint4_linear_239_41)"/>
<path opacity="0.4" d="M63.1603 272.616C63.1603 272.616 67.5891 277.777 68.0695 280.439C68.1273 280.557 69.8966 280.581 70.0702 280.71C70.9074 279.773 72.4987 277.069 75.7147 274.282C79.9255 270.608 84.6668 267.204 84.7409 267.176C84.7409 267.176 84.7762 267.169 84.7827 267.14C84.8311 267.001 84.2716 266.634 84.1397 266.694C83.3673 267.121 78.8455 269.553 75.0087 272.245C71.7738 274.518 69.0855 277.139 69.0855 277.139C69.0855 277.139 64.7753 272.501 64.1483 272.134C63.8232 272.301 63.4821 272.464 63.1603 272.616Z" fill="url(#paint5_linear_239_41)"/>
<path opacity="0.4" d="M63.1603 295.755C63.1603 295.755 67.5891 300.916 68.0695 303.577C68.1273 303.695 69.8966 303.72 70.0702 303.849C70.9074 302.912 72.4987 300.208 75.7147 297.421C79.9255 293.747 84.6668 290.343 84.7409 290.314C84.7409 290.314 84.7762 290.307 84.7827 290.279C84.8311 290.139 84.2716 289.773 84.1397 289.833C83.3673 290.259 78.8455 292.692 75.0087 295.384C71.7738 297.656 69.0855 300.278 69.0855 300.278C69.0855 300.278 64.7753 295.639 64.1483 295.273C63.8232 295.439 63.4821 295.603 63.1603 295.755Z" fill="url(#paint6_linear_239_41)"/>
<circle opacity="0.4" cx="68.1412" cy="366.577" r="6.42737" fill="url(#paint7_linear_239_41)" fill-opacity="0.7"/>
<circle opacity="0.4" cx="268.675" cy="366.577" r="6.17737" fill="#007888" stroke="#DFEFFF" stroke-width="0.5"/>
<path fill-rule="evenodd" clip-rule="evenodd" d="M178.707 27.9727H216.064C219.887 27.9727 223.011 24.8424 223.011 21.0265C223.011 17.2106 219.887 14.0873 216.064 14.0873H178.707C174.891 14.0873 171.767 17.2106 171.767 21.0265C171.767 24.8424 174.891 27.9727 178.707 27.9727ZM237.021 27.391H239.224C255.271 27.391 268.284 38.714 268.284 52.6895V70.0189V80.959V83.3295H126.494V80.959V70.0189V52.6895C126.494 38.714 139.507 27.391 155.554 27.391H157.757V25.902C157.757 11.9335 170.77 0.603516 186.817 0.603516H207.961C224.008 0.603516 237.021 11.9335 237.021 25.902V27.391Z" fill="url(#paint8_linear_239_41)"/>
<g opacity="0.4">
<path d="M197.974 200.892C197.974 202.312 196.823 203.463 195.403 203.463H61.7135C60.2936 203.463 59.1426 202.312 59.1426 200.892C59.1426 199.472 60.2936 198.321 61.7135 198.321H195.403C196.823 198.321 197.974 199.472 197.974 200.892Z" fill="url(#paint9_linear_239_41)"/>
<path d="M331.663 162.328C331.663 163.748 330.512 164.899 329.092 164.899H61.7135C60.2936 164.899 59.1426 163.748 59.1426 162.328C59.1426 160.908 60.2936 159.757 61.7135 159.757H329.092C330.512 159.757 331.663 160.908 331.663 162.328Z" fill="url(#paint10_linear_239_41)"/>
<path d="M331.663 175.182C331.663 176.602 330.512 177.753 329.092 177.753H61.7135C60.2936 177.753 59.1426 176.602 59.1426 175.182C59.1426 173.762 60.2936 172.611 61.7135 172.611H329.092C330.512 172.611 331.663 173.762 331.663 175.182Z" fill="url(#paint11_linear_239_41)"/>
<path d="M331.663 188.038C331.663 189.458 330.512 190.609 329.092 190.609H61.7135C60.2936 190.609 59.1426 189.458 59.1426 188.038C59.1426 186.618 60.2936 185.467 61.7135 185.467H329.092C330.512 185.467 331.663 186.618 331.663 188.038Z" fill="url(#paint12_linear_239_41)"/>
<path d="M331.663 383.288C331.663 384.708 330.512 385.859 329.092 385.859H61.7135C60.2936 385.859 59.1426 384.708 59.1426 383.288C59.1426 381.868 60.2936 380.717 61.7135 380.717H329.092C330.512 380.717 331.663 381.868 331.663 383.288Z" fill="url(#paint13_linear_239_41)"/>
<path d="M331.663 396.142C331.663 397.562 330.512 398.713 329.092 398.713H61.7135C60.2936 398.713 59.1426 397.562 59.1426 396.142C59.1426 394.722 60.2936 393.571 61.7135 393.571H329.092C330.512 393.571 331.663 394.722 331.663 396.142Z" fill="url(#paint14_linear_239_41)"/>
<path d="M331.663 408.997C331.663 410.417 330.512 411.568 329.092 411.568H61.7135C60.2936 411.568 59.1426 410.417 59.1426 408.997C59.1426 407.577 60.2936 406.426 61.7135 406.426H329.092C330.512 406.426 331.663 407.577 331.663 408.997Z" fill="url(#paint15_linear_239_41)"/>
<path d="M125.987 421.851C125.987 423.271 124.836 424.422 123.416 424.422H61.7135C60.2936 424.422 59.1426 423.271 59.1426 421.851C59.1426 420.431 60.2936 419.28 61.7135 419.28H123.416C124.836 419.28 125.987 420.431 125.987 421.851Z" fill="url(#paint16_linear_239_41)"/>
<path d="M331.663 321.585C331.663 323.005 330.512 324.156 329.092 324.156H61.7135C60.2936 324.156 59.1426 323.005 59.1426 321.585C59.1426 320.165 60.2936 319.014 61.7135 319.014H329.092C330.512 319.014 331.663 320.165 331.663 321.585Z" fill="url(#paint17_linear_239_41)"/>
<path d="M331.663 334.44C331.663 335.86 330.512 337.011 329.092 337.011H61.7135C60.2936 337.011 59.1426 335.86 59.1426 334.44C59.1426 333.02 60.2936 331.869 61.7135 331.869H329.092C330.512 331.869 331.663 333.02 331.663 334.44Z" fill="url(#paint18_linear_239_41)"/>
<path d="M331.663 347.295C331.663 348.714 330.512 349.866 329.092 349.866H61.7135C60.2936 349.866 59.1426 348.714 59.1426 347.295C59.1426 345.875 60.2936 344.724 61.7135 344.724H329.092C330.512 344.724 331.663 345.875 331.663 347.295Z" fill="url(#paint19_linear_239_41)"/>
<path d="M331.663 233.743C331.663 235.4 330.32 236.743 328.663 236.743H90.4231C88.7662 236.743 87.4231 235.4 87.4231 233.743V224.317C87.4231 222.661 88.7662 221.317 90.4231 221.317H328.663C330.32 221.317 331.663 222.661 331.663 224.317V233.743Z" fill="url(#paint20_linear_239_41)"/>
<path d="M331.663 303.159C331.663 304.816 330.32 306.159 328.663 306.159H90.4231C88.7662 306.159 87.4231 304.816 87.4231 303.159V293.733C87.4231 292.077 88.7662 290.733 90.4231 290.733H328.663C330.32 290.733 331.663 292.077 331.663 293.733V303.159Z" fill="url(#paint21_linear_239_41)"/>
<path d="M151 370C151 371.657 149.657 373 148 373H89.9998C88.3429 373 86.9998 371.657 86.9998 370V361C86.9998 359.343 88.3429 358 89.9998 358H148C149.657 358 151 359.343 151 361V370Z" fill="url(#paint22_linear_239_41)"/>
<path d="M226.254 371.004C226.254 372.108 225.359 373.004 224.254 373.004H187.119C186.015 373.004 185.119 372.108 185.119 371.004V359.578C185.119 358.474 186.015 357.578 187.119 357.578H224.254C225.359 357.578 226.254 358.474 226.254 359.578V371.004Z" fill="#C0E9F8"/>
<path d="M326.521 371.004C326.521 372.108 325.626 373.004 324.521 373.004H287.386C286.281 373.004 285.386 372.108 285.386 371.004V359.578C285.386 358.474 286.281 357.578 287.386 357.578H324.521C325.626 357.578 326.521 358.474 326.521 359.578V371.004Z" fill="#C0E9F8"/>
<path d="M331.663 280.02C331.663 281.677 330.32 283.02 328.663 283.02H90.4231C88.7662 283.02 87.4231 281.677 87.4231 280.02V270.595C87.4231 268.938 88.7662 267.595 90.4231 267.595H328.663C330.32 267.595 331.663 268.938 331.663 270.595V280.02Z" fill="url(#paint23_linear_239_41)"/>
<path d="M331.663 256.882C331.663 258.539 330.32 259.882 328.663 259.882H90.4231C88.7662 259.882 87.4231 258.539 87.4231 256.882V247.456C87.4231 245.799 88.7662 244.456 90.4231 244.456H328.663C330.32 244.456 331.663 245.799 331.663 247.456V256.882Z" fill="url(#paint24_linear_239_41)"/>
<path d="M151.239 439.619C151.239 438.976 150.718 438.455 150.075 438.455H62.2155C61.5729 438.455 61.052 438.976 61.052 439.619C61.052 440.261 61.5729 440.782 62.2155 440.782H150.075C150.718 440.782 151.239 440.261 151.239 439.619Z" fill="#C0E9F8"/>
</g>
<rect opacity="0.4" x="59.1428" y="100.483" width="192.821" height="43.7061" rx="5" fill="url(#paint25_linear_239_41)"/>
<circle opacity="0.4" cx="282.815" cy="470.7" r="17.4966" stroke="#007888"/>
<circle opacity="0.4" cx="282.814" cy="470.699" r="12.3547" stroke="#007888"/>
<path opacity="0.4" d="M272.474 463.291C272.474 463.291 280.165 472.253 280.999 476.875C281.1 477.08 284.172 477.122 284.474 477.347C285.928 475.719 288.691 471.024 294.276 466.183C301.589 459.802 309.823 453.891 309.951 453.842C309.951 453.842 310.013 453.83 310.024 453.78C310.108 453.538 309.136 452.901 308.907 453.006C307.566 453.746 299.713 457.97 293.05 462.646C287.432 466.592 282.764 471.145 282.764 471.145C282.764 471.145 275.278 463.09 274.19 462.452C273.625 462.742 273.033 463.026 272.474 463.291Z" fill="url(#paint26_linear_239_41)"/>
<path d="M171.378 509.085C178.285 501.934 179.595 491.496 176.521 482.538C173.45 473.574 166.506 465.949 158.503 459.725C149.12 452.427 138.093 446.748 126.235 443.11C121.571 441.679 116.649 440.549 111.724 440.958C106.802 441.37 101.843 443.567 99.5485 447.389C96.1523 453.041 99.4071 459.898 102.927 465.49C109.132 475.343 116.225 484.77 124.121 493.653C130.472 500.802 137.751 507.851 147.431 511.081C157.111 514.309 167.168 513.932 172.301 508.072" fill="#4AB031"/>
<path d="M168.707 529.411C168.798 529.409 168.783 528.292 168.678 526.269C168.517 524.248 168.13 521.329 167.336 517.752C166.495 514.184 165.322 509.948 163.476 505.344C162.679 503.24 160.8 498.198 156.249 490.664C150.253 480.455 142.107 472.109 135.02 466.939C133.359 465.567 131.508 464.576 130.025 463.606C129.26 463.142 128.584 462.678 127.893 462.31C127.2 461.967 126.555 461.648 125.957 461.352C123.623 460.206 122.317 459.604 122.268 459.657C122.059 459.862 127.492 462.158 134.354 467.396C141.186 472.623 149.105 480.912 155.053 491.035C158.367 496.525 160.682 501.424 162.322 505.581C164.217 510.14 165.475 514.333 166.427 517.865C167.332 521.406 167.854 524.295 168.171 526.297C168.431 528.302 168.617 529.412 168.707 529.411Z" fill="#17282F"/>
<path d="M144.934 499.919C135.5 496.148 124.395 495.658 113.924 496.999C108.297 497.722 102.43 499.025 98.6019 502.298C94.7757 505.573 94.0514 511.334 98.4467 514.147C101.063 515.821 104.711 516.077 108.105 516.046C116.302 515.971 122.422 517.725 128.97 521.547C132.708 523.727 138.172 524.479 142.64 525.551C147.01 526.602 151.941 524.603 154.26 521.547C156.579 518.491 156.655 514.67 155.573 511.226C155.573 511.226 154.435 503.718 144.934 499.919Z" fill="#156535"/>
<path d="M158.823 534.777C158.716 534.78 158.542 534.291 158.307 533.407C158.04 532.411 157.709 531.158 157.315 529.668C156.841 528.095 156.219 526.224 155.031 524.185C153.845 522.152 151.993 519.948 149.614 517.713C147.149 515.491 144.144 513.471 140.629 511.856C137.143 510.234 133.087 509.059 129.274 508.382C125.475 507.691 122.065 507.41 119.712 507.286C117.333 507.197 116.002 507.128 116.002 507.089C116 507.05 117.333 507.044 119.774 507.067C122.193 507.127 125.742 507.352 129.749 508.023C133.767 508.678 138.069 509.871 141.725 511.526C145.415 513.175 148.529 515.239 151.04 517.5C153.46 519.775 155.286 522.002 156.418 524.079C157.546 526.153 158.061 528.047 158.401 529.632C158.721 531.22 158.844 532.506 158.902 533.394C158.958 534.283 158.929 534.775 158.823 534.777Z" fill="#17282F"/>
<path d="M669.115 531.329H182.395C172.802 531.329 165.025 523.551 165.025 513.958V203.862C165.025 194.268 172.802 186.492 182.395 186.492H669.115C678.709 186.492 686.486 194.268 686.486 203.862V513.958C686.486 523.551 678.709 531.329 669.115 531.329Z" fill="url(#paint27_linear_239_41)"/>
<path d="M688.386 539.23H165.867C154.147 539.23 144.646 529.729 144.646 518.009V509.058H709.609V518.009C709.609 529.729 700.107 539.23 688.386 539.23Z" fill="url(#paint28_linear_239_41)"/>
<path d="M374.35 505.824L381.361 516.975H480.01L486.521 505.824H374.35Z" fill="#17282F"/>
<path d="M666.948 489.999H184.053C181.816 489.999 180 488.193 180 485.962V204.034C180 201.806 181.814 199.999 184.053 199.999H666.948C669.186 199.999 671 201.806 671 204.034V485.963C671 488.193 669.186 489.999 666.948 489.999Z" fill="#E7E8E5"/>
<path d="M671 490.999H180L180.526 221.999H671V490.999Z" fill="#FAFAF9"/>
<path d="M225 211.498C225 213.984 222.985 215.999 220.499 215.999C218.014 215.999 216 213.984 216 211.498C216 209.013 218.014 206.999 220.499 206.999C222.985 206.999 225 209.013 225 211.498Z" fill="#00C85F"/>
<path d="M201 211.498C201 213.984 198.985 215.999 196.499 215.999C194.015 215.999 192 213.984 192 211.498C192 209.013 194.015 206.999 196.499 206.999C198.985 206.999 201 209.013 201 211.498Z" fill="#D92F38"/>
<path d="M213 211.498C213 213.984 210.986 215.999 208.501 215.999C206.015 215.999 204 213.984 204 211.498C204 209.013 206.015 206.999 208.501 206.999C210.986 206.999 213 209.013 213 211.498Z" fill="#F7AC30"/>
<path d="M682.005 505.824C682.005 506.011 566.266 506.162 423.527 506.162C280.738 506.162 165.025 506.011 165.025 505.824C165.025 505.639 280.738 505.487 423.527 505.487C566.266 505.487 682.005 505.639 682.005 505.824Z" fill="#17282F"/>
<path d="M755.464 444.343C760.465 441.763 766.352 441.428 771.902 442.345C774.886 442.84 777.996 443.732 780.025 445.971C782.054 448.212 782.437 452.154 780.107 454.078C778.721 455.224 776.787 455.399 774.987 455.378C770.642 455.327 765.82 454.562 762.349 457.177C760.367 458.669 759.048 461.148 756.68 461.882C754.363 462.601 751.749 461.233 750.52 459.142C749.29 457.051 749.25 454.436 749.823 452.08C749.823 452.08 750.427 446.943 755.464 444.343Z" fill="#F03D5F"/>
<path d="M744.008 422.228C747.064 426.595 753.008 425.15 755.763 422.484C758.518 419.819 759.682 415.956 760.743 412.271C763.165 403.852 765.607 395.022 763.806 386.45C763.268 383.888 762.309 381.332 760.51 379.431C758.708 377.529 755.939 376.399 753.408 377.067C750.411 377.859 748.547 380.793 747.202 383.586C743.246 391.792 741.151 400.889 741.12 409.999C741.105 414.254 741.606 418.716 744.008 422.228Z" fill="#F03D5F"/>
<path d="M735.611 428.494C738.931 424.556 739.56 418.807 738.083 413.873C736.607 408.936 733.269 404.736 729.422 401.308C724.913 397.288 719.612 394.161 713.912 392.157C711.671 391.369 709.305 390.747 706.938 390.972C704.572 391.199 702.188 392.409 701.085 394.514C699.453 397.627 701.017 401.403 702.71 404.483C705.692 409.91 709.101 415.102 712.896 419.995C715.949 423.932 719.448 427.814 724.101 429.594C728.753 431.372 733.587 431.164 736.055 427.936" fill="#F03D5F"/>
<path d="M743.8 488.104C743.858 488.108 743.951 487.401 744.076 486.12C744.218 484.676 744.394 482.862 744.604 480.704C744.857 478.425 745.188 475.715 745.821 472.761C746.453 469.816 747.441 466.624 748.708 463.386C750.022 460.168 751.624 457.243 753.497 454.903C755.355 452.553 757.517 450.852 759.549 449.871C761.573 448.87 763.391 448.463 764.645 448.283C765.913 448.154 766.622 448.054 766.622 447.998C766.623 447.941 765.913 447.933 764.612 447.966C763.323 448.053 761.431 448.378 759.296 449.351C757.154 450.299 754.861 452.027 752.913 454.425C750.946 456.814 749.287 459.803 747.949 463.079C746.659 466.373 745.686 469.599 745.082 472.608C744.481 475.612 744.207 478.355 744.026 480.652C743.855 482.952 743.79 484.814 743.759 486.101C743.729 487.389 743.744 488.102 743.8 488.104Z" fill="#17282F"/>
<path d="M744.172 483.937C744.202 483.936 744.22 483.619 744.226 483.016C744.223 482.324 744.221 481.453 744.22 480.384C744.214 478.099 744.215 474.791 744.337 470.709C744.538 462.541 745.242 453.752 746.6 441.36C747.887 429.709 749.613 416.148 751.434 407.332C751.824 405.327 752.219 403.522 752.588 401.942C752.942 400.358 753.244 398.993 753.534 397.887C753.784 396.848 753.988 396.001 754.15 395.329C754.282 394.742 754.338 394.428 754.31 394.42C754.284 394.413 754.174 394.71 753.991 395.284C753.79 395.946 753.537 396.782 753.226 397.806C752.888 398.901 752.539 400.258 752.144 401.836C751.73 403.408 751.296 405.209 750.868 407.211C749.066 415.199 747.157 426.365 745.786 438.785C744.424 451.203 743.812 462.51 743.757 470.697C743.709 474.791 743.795 478.106 743.9 480.391C743.966 481.461 744.02 482.332 744.061 483.023C744.108 483.624 744.145 483.939 744.172 483.937Z" fill="#17282F"/>
<path d="M744.227 462.132C744.284 462.13 744.275 461.153 744.209 459.382C744.108 457.614 743.865 455.059 743.366 451.929C742.838 448.806 742.101 445.1 740.942 441.071C740.441 439.23 739.261 434.818 736.402 428.225C732.637 419.291 727.52 411.988 723.069 407.464C722.025 406.263 720.863 405.396 719.931 404.547C719.451 404.14 719.026 403.735 718.592 403.413C718.157 403.112 717.752 402.833 717.376 402.575C715.91 401.572 715.09 401.045 715.059 401.091C714.928 401.27 718.341 403.279 722.65 407.863C726.942 412.437 731.915 419.691 735.651 428.549C737.733 433.354 739.187 437.641 740.217 441.278C741.407 445.268 742.198 448.937 742.795 452.028C743.364 455.126 743.692 457.655 743.891 459.407C744.054 461.161 744.171 462.133 744.227 462.132Z" fill="#17282F"/>
<path d="M723.151 500.599L725.336 530.535H763.795L765.98 500.599H723.151Z" fill="#17282F"/>
<path d="M719.436 488.8V500.599H770.568V488.8H719.436Z" fill="#17282F"/>
<path d="M719.436 529.389V532.66H769.723V529.389H719.436Z" fill="url(#paint29_linear_239_41)"/>
<path d="M724.193 538.417L721.838 532.661H767.891L765.144 538.417H724.193Z" fill="url(#paint30_linear_239_41)"/>
<path d="M765.265 510.383C765.274 510.389 765.213 510.483 765.086 510.658C764.934 510.86 764.743 511.11 764.511 511.419C763.964 512.118 763.214 513.079 762.27 514.286L762.171 514.414L762.074 514.281C760.666 512.333 758.785 509.731 756.57 506.668H756.887C755.25 508.986 753.426 511.569 751.469 514.34L751.298 514.582L751.109 514.356C749.108 511.976 746.937 509.392 744.682 506.709L745.053 506.704C744.94 506.845 744.819 506.996 744.698 507.149C742.705 509.648 740.776 512.065 738.952 514.353L738.76 514.593L738.584 514.343C736.632 511.582 734.81 509.004 733.162 506.672L733.478 506.686C730.805 509.73 728.539 512.313 726.8 514.294L726.681 514.43L726.59 514.278C725.71 512.799 725.009 511.619 724.5 510.764C724.282 510.384 724.104 510.075 723.963 509.829C723.846 509.616 723.79 509.503 723.8 509.497C723.809 509.49 723.887 509.591 724.024 509.792C724.18 510.029 724.376 510.325 724.618 510.693C725.151 511.532 725.888 512.69 726.812 514.141L726.603 514.124C728.314 512.118 730.544 509.506 733.174 506.425L733.339 506.23L733.488 506.438C735.152 508.761 736.99 511.328 738.958 514.075L738.591 514.066C740.41 511.775 742.335 509.354 744.323 506.85C744.444 506.698 744.566 506.547 744.677 506.406L744.861 506.177L745.049 506.401C747.298 509.09 749.462 511.679 751.457 514.064L751.097 514.078C753.074 511.319 754.916 508.75 756.57 506.443L756.731 506.22L756.887 506.443C759.055 509.539 760.896 512.169 762.275 514.139L762.079 514.133C763.061 512.955 763.843 512.018 764.41 511.338C764.663 511.045 764.868 510.808 765.035 510.615C765.178 510.455 765.256 510.376 765.265 510.383Z" fill="#DADBD8"/>
<path d="M766.515 500.401C766.515 500.533 756.878 500.641 744.994 500.641C733.104 500.641 723.471 500.533 723.471 500.401C723.471 500.27 733.104 500.161 744.994 500.161C756.878 500.161 766.515 500.27 766.515 500.401Z" fill="url(#paint31_linear_239_41)"/>
<path d="M768.457 532.983C768.457 533.115 757.983 533.222 745.068 533.222C732.147 533.222 721.676 533.115 721.676 532.983C721.676 532.851 732.147 532.743 745.068 532.743C757.983 532.743 768.457 532.851 768.457 532.983Z" fill="#17282F"/>
<g opacity="0.4">
<path d="M649.912 377.376H536.333V372.01H649.912V377.376Z" fill="#C8E9F6"/>
<path d="M649.912 389.896H536.333V385.425H649.912V389.896Z" fill="#C8E9F6"/>
<path d="M649.912 405.994H536.333V400.628H649.912V405.994Z" fill="#C8E9F6"/>
<path d="M649.912 418.515H536.333V414.043H649.912V418.515Z" fill="#C8E9F6"/>
<path d="M649.912 434.612H536.333V429.246H649.912V434.612Z" fill="#C8E9F6"/>
<path d="M649.912 447.133H536.333V442.661H649.912V447.133Z" fill="#C8E9F6"/>
<path d="M608 461.999H536V457.999H608V461.999Z" fill="#C8E9F6"/>
<path d="M649.912 286.732C649.912 288.389 648.569 289.732 646.912 289.732H539.746C538.089 289.732 536.746 288.389 536.746 286.732V277.528C536.746 275.871 538.089 274.528 539.746 274.528H646.912C648.569 274.528 649.912 275.871 649.912 277.528V286.732Z" fill="url(#paint32_linear_239_41)"/>
<path d="M618.734 261.418C618.734 263.075 617.391 264.418 615.734 264.418H565.354C563.697 264.418 562.354 263.075 562.354 261.418V252.525C562.354 250.869 563.697 249.525 565.354 249.525H615.734C617.391 249.525 618.734 250.869 618.734 252.525V261.418Z" fill="url(#paint33_linear_239_41)"/>
<path d="M590.012 356.094C590.012 357.751 588.669 359.094 587.012 359.094H539.823C538.166 359.094 536.823 357.751 536.823 356.094V347.201C536.823 345.544 538.166 344.201 539.823 344.201H587.012C588.669 344.201 590.012 345.544 590.012 347.201V356.094Z" fill="url(#paint34_linear_239_41)"/>
<path d="M649.987 333.754C649.987 335.411 648.644 336.754 646.987 336.754H539.823C538.166 336.754 536.823 335.411 536.823 333.754V323.798C536.823 322.141 538.166 320.798 539.823 320.798H646.987C648.644 320.798 649.987 322.141 649.987 323.798V333.754Z" fill="url(#paint35_linear_239_41)"/>
<path d="M649.912 309.985C649.912 311.642 648.569 312.985 646.912 312.985H539.746C538.089 312.985 536.746 311.642 536.746 309.985V300.781C536.746 299.124 538.089 297.781 539.746 297.781H646.912C648.569 297.781 649.912 299.124 649.912 300.781V309.985Z" fill="url(#paint36_linear_239_41)"/>
</g>
<path fill-rule="evenodd" clip-rule="evenodd" d="M268.327 447.292V446.123L267.162 445.856C260.339 444.149 260.16 437.687 260.16 437.418V436.159L258.991 435.893C258.721 435.799 253.065 434.544 249.295 434.544C245.435 434.544 239.779 435.799 239.514 435.893L238.345 436.159V437.418C238.345 437.687 238.254 444.149 231.342 445.856L230.177 446.123V447.292C230.087 447.562 229.908 452.586 232.06 458.781C234.036 464.527 238.524 472.515 248.578 477.633L249.295 477.992L250.015 477.633C259.981 472.515 264.467 464.527 266.444 458.781C268.597 452.586 268.417 447.562 268.327 447.292Z" fill="url(#paint37_linear_239_41)"/>
<path fill-rule="evenodd" clip-rule="evenodd" d="M246.874 431.581V424.131C246.874 423.235 246.156 422.428 245.167 422.428H238.793C237.896 422.428 237.178 423.235 237.178 424.131V429.429C234.664 427.184 232.149 424.939 229.728 422.608C228.738 421.796 228.289 421.796 227.303 422.608C219.132 429.877 210.965 437.059 202.705 444.329C202.166 444.868 201.628 445.316 201 445.856H205.129V447.741C205.129 448.009 205.129 448.279 205.129 448.637C205.129 456.088 205.219 463.541 205.129 470.991C205.129 472.067 205.487 472.337 206.477 472.337C210.786 472.247 215.183 472.247 219.491 472.337C220.481 472.337 220.749 471.978 220.749 471.08C220.66 467.311 220.749 463.541 220.749 459.767C220.749 457.615 222.006 456.449 224.071 456.449C225.416 456.449 226.765 456.449 228.111 456.449C227.841 455.37 227.662 454.384 227.572 453.487H227.482C226.944 449.896 227.034 447.382 227.034 447.202V446.037L227.213 443.702L229.455 443.163L230.625 442.894C232.149 442.444 233.229 441.725 233.856 440.919C235.202 439.393 235.202 437.597 235.202 437.418V436.252V433.737L237.627 433.199L238.793 432.93C238.972 432.837 240.499 432.478 242.562 432.119C243.911 431.94 245.346 431.672 246.874 431.581Z" fill="url(#paint38_linear_239_41)"/>
<path fill-rule="evenodd" clip-rule="evenodd" d="M249.384 475.03V457.077H263.84C263.75 457.525 263.567 458.064 263.388 458.513C260.877 465.786 256.121 471.35 249.384 475.03Z" fill="white"/>
<path fill-rule="evenodd" clip-rule="evenodd" d="M241.397 438.495C243.193 438.135 246.695 437.418 249.116 437.418V455.909H234.574C233.588 452.586 233.408 449.807 233.315 448.279C238.882 446.396 240.948 441.636 241.397 438.495Z" fill="white"/>
<path fill-rule="evenodd" clip-rule="evenodd" d="M250.87 361.359C248.783 361.458 246.992 363.448 247.09 365.634C247.189 367.625 249.077 369.512 251.167 369.412C253.356 369.313 255.045 367.426 254.846 365.138C254.747 362.95 253.058 361.259 250.87 361.359Z" fill="url(#paint39_linear_239_41)"/>
<path fill-rule="evenodd" clip-rule="evenodd" d="M216.465 366.331C218.254 366.431 219.747 368.121 219.644 370.011C219.644 371.701 217.955 373.192 216.266 373.093C214.376 373.093 212.985 371.502 213.084 369.512C213.184 367.724 214.673 366.331 216.465 366.331Z" fill="url(#paint40_linear_239_41)"/>
<path fill-rule="evenodd" clip-rule="evenodd" d="M239.136 351.317C239.136 353.803 237.046 355.792 234.559 355.792C231.877 355.792 229.886 353.703 229.986 351.019C229.986 348.434 232.076 346.543 234.662 346.543C237.146 346.543 239.136 348.733 239.136 351.317Z" fill="url(#paint41_linear_239_41)"/>
<path fill-rule="evenodd" clip-rule="evenodd" d="M228.595 364.84C228.198 365.435 227.701 365.934 227.503 366.53C225.81 369.912 223.323 372.496 220.74 375.082C219.945 375.778 219.643 376.572 219.746 377.567C219.746 382.043 219.746 386.518 219.746 390.991C219.746 391.987 219.846 392.982 218.551 392.982C217.259 392.982 216.962 392.185 216.962 391.091C217.061 388.804 217.061 386.617 217.061 384.428C216.962 383.832 217.359 382.838 216.365 382.838C215.472 382.838 215.671 383.832 215.671 384.328C215.671 386.518 215.671 388.606 215.671 390.792C215.671 391.786 215.869 392.982 214.275 392.982C212.885 392.982 212.985 391.786 212.985 390.892C212.985 386.716 213.083 382.738 212.985 378.661C212.985 377.967 213.282 377.27 212.189 376.175C212.189 378.066 212.189 379.457 212.189 380.849C212.189 381.745 212.388 382.64 211.093 382.64C210 382.64 210.1 381.745 210.1 380.949C210.1 379.357 210.1 377.868 210.1 376.175C210.1 374.486 210.895 373.491 212.786 373.59C214.275 373.69 215.671 373.59 217.16 373.59C219.746 373.59 220.74 372.694 221.932 370.41C224.122 366.033 226.605 361.756 229.589 357.978C230.482 356.786 231.58 355.991 233.069 357.382C233.964 358.177 235.258 358.077 236.153 357.283C237.344 356.19 238.143 356.686 239.136 357.58C240.427 358.774 241.226 360.266 242.12 361.756C243.511 364.044 244.905 366.331 246.395 368.619C246.395 368.816 246.594 369.016 246.693 369.115C247.488 369.713 248.584 370.01 250.074 370.01C251.763 370.01 253.555 370.11 255.243 370.01C257.433 370.01 258.425 371.105 258.425 373.093C258.425 374.983 258.425 376.87 258.425 378.761C258.425 379.656 258.525 380.75 257.234 380.75C255.74 380.75 255.939 379.656 255.939 378.661C255.939 376.97 255.939 375.281 255.939 373.093C254.647 374.387 254.945 375.182 254.945 375.977C254.945 380.849 254.945 385.623 254.945 390.494C254.945 391.587 255.143 392.982 253.455 392.982C251.663 392.982 251.763 391.587 251.763 390.296C251.763 387.809 251.763 385.325 251.763 382.738C251.763 382.142 252.061 380.949 251.067 380.949C249.776 380.949 250.273 382.142 250.273 382.838C250.174 385.524 250.273 388.107 250.273 390.693C250.273 391.987 249.875 393.081 248.481 392.982C246.892 392.982 246.991 391.686 246.991 390.693C246.991 385.325 246.991 380.053 246.991 374.684C247.09 371.701 245.596 372.894 243.908 370.309C242.815 368.519 241.424 366.331 240.13 364.84C241.023 367.823 241.918 370.807 242.815 373.69C243.511 376.374 243.212 376.87 240.427 376.87C238.938 376.77 238.738 377.369 238.738 378.661C238.738 382.441 238.738 386.219 238.738 389.997C238.738 391.388 238.738 392.982 236.946 392.982C235.258 392.982 235.357 391.388 235.357 390.097C235.357 386.418 235.357 382.64 235.357 378.96C235.357 378.264 235.854 376.97 234.559 376.97C233.168 376.97 233.764 378.264 233.764 378.861C233.764 382.738 233.764 386.518 233.764 390.494C233.764 391.587 233.566 392.681 232.373 392.882C230.784 393.18 230.386 391.987 230.386 390.693C230.386 386.815 230.283 382.838 230.386 378.96C230.386 377.369 229.986 376.77 228.296 376.87C226.009 376.97 225.611 376.275 226.208 374.087C227.104 371.105 227.999 368.121 228.893 365.038C228.794 364.939 228.695 364.939 228.595 364.84Z" fill="url(#paint42_linear_239_41)"/>
<path fill-rule="evenodd" clip-rule="evenodd" d="M210 344.953C210.597 344.953 211.093 344.755 211.594 344.655C213.679 344.256 215.671 344.356 217.656 344.953C218.952 345.35 218.952 345.35 219.15 344.057C219.445 340.577 220.343 337.297 221.733 334.115C223.029 330.733 224.916 327.749 227.602 325.363C227.899 325.065 228.297 324.865 228.396 324.467C228.098 324.169 227.8 324.368 227.503 324.368C218.849 326.259 211.594 334.115 210.199 342.863C210.199 342.963 210.1 343.161 210 343.36C210 343.858 210 344.456 210 344.953Z" fill="url(#paint43_linear_239_41)"/>
<path fill-rule="evenodd" clip-rule="evenodd" d="M234.662 319C235.754 319.894 234.662 322.282 235.258 323.475C235.556 324.169 236.649 323.971 237.244 324.269C239.434 325.363 241.123 327.054 242.418 328.944C245.398 333.12 246.892 337.893 247.686 342.863C247.785 343.559 247.985 344.256 248.084 344.953C248.184 345.549 248.084 345.847 247.388 345.549C243.709 344.256 239.931 343.559 236.053 343.261C232.871 342.963 229.787 343.459 226.708 344.057C224.817 344.356 223.028 344.854 221.237 345.549C220.442 345.749 220.244 345.45 220.342 344.755C220.442 343.261 220.74 341.771 221.137 340.279C222.031 335.902 223.526 331.826 226.311 328.346C227.701 326.557 229.29 324.865 231.48 324.071C233.268 323.475 233.268 323.475 233.268 321.486C233.268 320.59 232.971 319.696 233.764 319C234.066 319 234.36 319 234.662 319Z" fill="url(#paint44_linear_239_41)"/>
<path fill-rule="evenodd" clip-rule="evenodd" d="M258.525 344.953C257.929 344.953 257.433 344.755 256.935 344.655C254.846 344.256 252.86 344.356 250.87 344.953C249.578 345.35 249.578 345.35 249.379 344.057C248.981 340.577 248.184 337.297 246.792 334.115C245.398 330.733 243.609 327.749 240.924 325.363C240.626 325.065 240.23 324.865 240.13 324.467C240.427 324.169 240.726 324.368 241.023 324.368C249.677 326.259 256.935 334.115 258.326 342.863C258.326 342.963 258.425 343.161 258.525 343.36C258.525 343.858 258.525 344.456 258.525 344.953Z" fill="url(#paint45_linear_239_41)"/>
<path fill-rule="evenodd" clip-rule="evenodd" d="M316.887 451.191V448.952H311C314.084 446.055 317.261 443.251 320.343 440.448V424.756C320.343 423.727 321.183 422.885 322.213 422.885H329.313C330.34 422.885 331.179 423.727 331.179 424.756V430.641C333.888 428.119 336.692 425.596 339.495 423.072C340.522 422.139 341.083 422.139 342.109 423.072C343.043 423.915 345.567 424.849 345.192 426.249L344.446 429.239C343.979 431.949 343.606 434.657 343.792 437.272C344.072 439.982 345.006 442.598 346.969 444.933C348.462 446.708 350.239 447.924 352.199 448.672C356.495 450.258 362.289 449.792 366.772 449.792V451.005C366.772 451.285 366.772 451.567 366.772 451.94C366.772 460.348 366.772 468.568 366.772 476.885C366.772 478.097 366.399 478.378 365.279 478.378C360.422 478.284 355.656 478.284 350.798 478.378C349.679 478.378 349.396 478.004 349.396 476.885C349.489 472.773 349.489 468.568 349.396 464.365C349.396 462.03 348.089 460.721 345.752 460.721C343.512 460.628 341.362 460.628 339.12 460.628C335.289 460.628 334.076 461.843 334.076 465.86C334.076 469.598 334.076 473.334 334.076 477.07C334.076 478.004 333.888 478.284 332.859 478.284C328.097 478.284 323.333 478.19 318.57 478.284C317.353 478.378 316.98 478.004 316.887 477.164V471.745C316.887 464.831 316.887 458.011 316.887 451.191Z" fill="url(#paint46_linear_239_41)"/>
<path fill-rule="evenodd" clip-rule="evenodd" d="M365.464 433.256C363.502 437.74 363.315 438.113 360.699 439.795C360.982 437.365 361.822 435.125 361.075 432.789C360.795 431.669 360.512 430.454 360.139 429.333C359.019 426.623 358.365 426.529 356.589 428.958C353.135 433.629 353.413 440.636 357.055 445.682C357.525 446.241 358.179 446.708 358.272 447.828C354.348 447.735 350.893 446.708 348.276 443.718C344.726 439.422 345.192 434.563 346.126 429.333C347.436 430.078 347.716 431.388 348.369 432.229C349.489 433.441 350.239 433.441 350.893 431.855C351.733 430.172 351.638 428.399 350.893 426.809C349.679 424.101 350.141 421.393 351.173 418.869C352.573 415.039 354.815 411.863 357.619 408.966C357.991 408.5 358.365 407.846 359.019 408.033C359.672 408.219 359.392 408.966 359.392 409.528C359.579 411.769 360.795 413.451 361.914 415.32C364.155 418.869 365.931 422.512 364.251 426.902C366.212 425.503 366.678 424.662 367.988 420.457C371.165 424.289 372.657 428.213 370.978 433.162C372.845 432.136 373.405 430.547 374.152 428.958C378.918 436.898 372.284 447.362 361.729 448.017C366.305 443.905 367.051 439.142 365.464 433.256Z" fill="url(#paint47_linear_239_41)"/>
<path fill-rule="evenodd" clip-rule="evenodd" d="M251.81 257.509C250.451 260.62 250.353 260.911 248.506 262.076C248.7 260.328 249.285 258.772 248.796 257.218C248.602 256.438 248.408 255.563 248.116 254.786C247.34 252.941 246.854 252.84 245.588 254.591C243.258 257.799 243.452 262.659 246.077 266.157C246.271 266.547 246.854 266.838 246.854 267.618C244.131 267.521 241.705 266.838 239.953 264.798C237.425 261.881 237.812 258.48 238.396 254.786C239.273 255.369 239.468 256.243 239.953 256.828C240.73 257.605 241.216 257.605 241.705 256.537C242.286 255.369 242.186 254.204 241.705 253.039C240.826 251.19 241.216 249.344 241.898 247.497C242.869 244.871 244.423 242.638 246.369 240.693C246.66 240.401 246.854 239.916 247.34 240.012C247.825 240.11 247.631 240.693 247.631 240.984C247.728 242.54 248.602 243.803 249.379 245.065C250.936 247.497 252.101 250.025 250.936 253.136C252.295 252.164 252.687 251.577 253.561 248.662C255.795 251.286 256.866 254.01 255.698 257.509C256.963 256.828 257.351 255.66 257.837 254.591C261.142 260.034 256.571 267.327 249.285 267.812C252.392 264.895 252.881 261.59 251.81 257.509Z" fill="url(#paint48_linear_239_41)"/>
<path fill-rule="evenodd" clip-rule="evenodd" d="M236.745 244.871C237.914 244.871 239.079 244.972 240.245 244.972C239.953 245.553 239.759 246.04 239.468 246.622V246.914C235.871 246.914 232.275 246.914 228.775 246.914C214.682 247.011 217.695 245.359 211.765 258.286C211.668 258.576 211.668 258.867 211.474 259.062C210.017 261.785 211.183 262.659 213.905 262.561C221.291 262.561 228.581 262.561 235.871 262.561C236.26 263.924 236.939 265.187 238.008 266.449C239.176 267.909 240.536 268.784 242.092 269.463C243.55 269.949 245.102 270.24 246.758 270.24H249.379V270.433C250.353 270.34 251.324 270.142 252.198 269.949C252.004 270.433 252.004 271.116 252.004 271.894C252.004 273.836 252.392 275.005 254.63 274.811C255.796 274.811 256.963 274.811 258.226 274.811C258.226 274.811 258.226 274.811 258.226 274.908C258.42 274.908 258.711 274.908 259.003 274.811C261.24 274.713 263.865 275.782 263.764 271.603C263.764 267.715 261.24 268.784 259.1 268.686C257.838 268.589 256.478 268.784 255.212 268.686C255.31 268.589 255.406 268.589 255.504 268.492C257.449 267.328 259.003 265.77 259.974 263.924C260.268 263.536 260.557 262.95 260.754 262.464C262.113 262.076 262.502 261.104 261.531 259.062C261.531 258.674 261.531 258.286 261.531 257.897C261.433 256.344 260.948 254.787 260.075 253.33L257.643 249.344L257.449 249.927C256.866 248.956 256.284 247.982 255.504 247.108L253.756 245.065C256.572 245.553 258.614 247.205 259.78 250.219C260.268 251.385 261.046 252.552 261.337 253.912C262.308 257.799 264.739 259.159 268.723 258.674C270.472 258.48 272.902 257.799 273 261.202C273 263.924 271.931 264.798 269.403 264.604C266.972 264.409 267.267 266.157 267.267 267.715C267.267 274.03 267.166 280.348 267.361 286.57C267.461 289.584 266.389 290.846 263.376 290.555C261.919 290.459 260.462 290.362 259.003 290.555C254.824 291.041 252.392 290.071 253.169 285.208C253.464 283.46 252.493 282.974 250.839 282.974C241.216 282.974 231.692 282.974 222.165 282.974C219.831 282.974 219.54 284.334 219.738 286.085C220.126 289.293 219.054 290.652 215.555 290.555C203.795 290.264 205.834 292.012 205.74 280.835C205.641 276.364 205.641 271.991 205.74 267.521C205.74 265.575 205.352 264.314 203.115 264.604C200.394 264.895 200.004 263.242 200.004 261.104C199.908 258.674 201.461 258.286 203.115 258.674C208.557 259.839 210.6 256.828 212.348 252.259C214.876 245.454 216.04 244.871 223.428 244.871C227.901 244.871 232.275 244.871 236.745 244.871Z" fill="url(#paint49_linear_239_41)"/>
<path fill-rule="evenodd" clip-rule="evenodd" d="M214.778 270.823C215.459 270.823 215.945 270.823 216.43 270.823C218.569 270.73 221 271.604 221 267.812C221 264.023 218.666 264.703 216.529 264.703C214.876 264.605 213.322 264.703 211.765 264.703C210.6 264.703 209.431 264.703 209.337 266.158C209.236 267.522 208.557 269.366 209.822 270.341C211.279 271.409 213.221 270.73 214.778 270.823Z" fill="white"/>
<path fill-rule="evenodd" clip-rule="evenodd" d="M236.356 280.932C239.176 280.932 241.992 280.932 244.811 280.932C246.272 280.932 247.535 280.543 247.437 278.699C247.243 277.044 246.175 276.85 244.909 276.85C239.274 276.753 233.634 276.85 228.095 276.85C226.636 276.85 225.665 277.335 225.665 278.795C225.567 280.447 226.733 280.835 227.999 280.932C230.814 280.932 233.634 280.932 236.356 280.932Z" fill="white"/>
<path fill-rule="evenodd" clip-rule="evenodd" d="M369.991 246.282C372.054 246.282 374.118 246.282 376.359 246.282C379.11 246.455 380.828 248.18 380.828 250.759C381 255.057 380.828 259.534 381 263.834C381 264.866 380.485 265.212 379.453 265.212C375.149 265.212 370.845 265.212 366.547 265.212C365.517 265.212 365.173 264.866 364.822 264.009C361.9 257.471 356.913 254.023 349.681 254.023C342.626 253.852 337.463 257.471 334.541 264.009C334.197 265.039 333.682 265.212 332.644 265.212C328.518 265.212 324.214 265.212 319.916 265.212C318.712 265.212 318.368 264.697 318.368 263.666C318.535 259.534 318.368 255.235 318.535 251.103C318.535 248.18 320.26 246.282 323.183 246.282C327.315 246.282 331.446 246.113 335.572 246.282C337.291 246.455 337.814 245.767 337.635 244.221C337.463 243.015 337.635 241.812 337.635 240.431C337.814 237.853 339.533 236.134 342.111 236.134C347.275 235.956 352.266 235.956 357.258 236.134C360.008 236.134 361.556 237.853 361.728 240.603C361.9 242.5 360.868 244.907 362.244 245.938C363.447 246.797 365.86 246.282 367.579 246.282C368.438 246.282 369.126 246.282 369.991 246.282Z" fill="url(#paint50_linear_239_41)"/>
<path fill-rule="evenodd" clip-rule="evenodd" d="M349.681 293.779C341.08 293.779 332.478 293.779 324.041 293.779C320.088 293.779 318.535 292.226 318.535 288.272C318.368 283.108 318.535 277.772 318.368 272.438C318.368 270.89 318.878 270.548 320.431 270.548C324.041 270.548 327.659 270.548 331.268 270.548C332.822 270.548 333.166 270.717 333.51 272.265C334.369 280.701 341.424 287.069 349.681 287.069C358.112 287.069 365.173 280.701 366.031 272.265C366.203 270.89 366.375 270.548 367.579 270.548C371.538 270.548 375.492 270.548 379.453 270.548C380.485 270.548 381 270.89 381 271.921C380.828 277.772 381 283.453 380.828 289.131C380.828 292.055 379.11 293.779 376.008 293.779C367.236 293.779 358.289 293.779 349.681 293.779Z" fill="url(#paint51_linear_239_41)"/>
<path fill-rule="evenodd" clip-rule="evenodd" d="M347.79 278.117V272.438H341.94V268.482H347.79V262.805H351.579V268.482H357.424V272.438H351.579V278.117H347.79Z" fill="url(#paint52_linear_239_41)"/>
<path fill-rule="evenodd" clip-rule="evenodd" d="M349.338 244.562C351.4 244.562 353.298 244.562 355.532 244.735C356.564 244.735 356.913 244.39 356.913 243.188C356.913 242.672 356.913 242.156 356.913 241.633C357.079 240.087 356.564 239.399 354.846 239.399C351.235 239.571 347.62 239.399 344.003 239.399C342.626 239.399 341.767 239.743 341.94 241.292C341.94 241.812 341.94 242.5 341.94 243.188C341.767 244.39 342.283 244.735 343.487 244.735C345.378 244.562 347.275 244.562 349.338 244.562Z" fill="white"/>
<path d="M321.431 291.256H310.131V283.854H321.431V291.256ZM323.536 282.069C323.511 281.973 323.463 281.881 323.39 281.813C323.019 281.461 320.965 279.692 320.361 279.173H315.783H310.131L308.193 281.751C308.102 281.833 308.047 281.946 308.022 282.069C308.007 282.127 308 282.188 308 282.246V293.157C308 293.526 308.317 293.822 308.71 293.822H322.851C323.245 293.822 323.565 293.526 323.565 293.157V282.246C323.565 282.185 323.554 282.127 323.536 282.069Z" fill="white"/>
<rect x="309.831" y="282.973" width="11.1245" height="8.24038" fill="white"/>
<path d="M320.62 277.342H310.971C310.547 277.342 310.2 277.686 310.2 278.11V279.695H321.388V278.11C321.388 277.686 321.044 277.342 320.62 277.342Z" fill="url(#paint53_linear_239_41)"/>
<path d="M320.766 291.086H310.796V284.114H320.766V291.086ZM322.624 282.433C322.601 282.343 322.56 282.256 322.495 282.192C322.167 281.861 321.242 281.006 320.708 280.518H311.034L309.086 282.134C309.006 282.211 308.957 282.317 308.935 282.433C308.922 282.488 308.916 282.546 308.916 282.6V292.876C308.916 293.223 309.195 293.503 309.542 293.503H322.02C322.367 293.503 322.649 293.223 322.649 292.876V282.6C322.649 282.542 322.64 282.488 322.624 282.433Z" fill="url(#paint54_linear_239_41)"/>
<path fill-rule="evenodd" clip-rule="evenodd" d="M416.363 264.647C416.945 264.039 418.207 264.401 419.276 265.263C419.571 265.508 419.765 265.878 420.053 266.12C421.125 267.714 426.857 275.931 426.857 276.053L427.052 276.177L426.857 276.299C425.692 276.544 424.915 277.156 424.721 278.013C424.43 279.365 425.305 280.837 427.152 282.434C428.706 283.781 430.942 285.128 433.663 286.352C433.468 286.231 433.08 285.985 432.788 285.741C431.037 284.515 429.289 283.291 428.027 282.184C426.08 280.468 425.401 279.242 425.79 278.14C425.984 277.401 426.47 277.156 427.441 277.156C428.415 277.279 430.066 278.14 431.817 278.875C432.982 279.488 434.051 280.1 434.831 280.345C437.648 281.327 440.564 282.306 443.384 284.76C443.773 285.128 444.161 285.496 444.549 285.985C446.592 288.071 448.537 290.401 450.48 292.978L450.674 293.223L444.452 296.897C443.967 296.291 443.384 295.674 442.802 295.182C442.025 294.447 441.244 293.957 440.467 293.466C439.398 292.978 436.774 291.997 434.245 290.891C431.623 289.788 429.192 288.686 428.221 288.317C427.735 287.95 427.247 287.58 426.764 287.214C425.692 286.352 424.915 284.639 424.139 283.168C423.944 282.552 423.65 282.184 423.456 281.694L416.456 267.469C415.679 265.753 416.068 265.018 416.363 264.647Z" fill="url(#paint55_linear_239_41)"/>
<path fill-rule="evenodd" clip-rule="evenodd" d="M434.831 259.991C430.454 263.054 428.317 261.215 428.317 268.693H437.452H437.553H441.15C441.438 267.958 441.826 267.101 442.412 266.488C442.995 265.877 443.773 265.263 444.452 264.773C444.354 264.647 444.16 264.401 443.967 264.157L442.995 262.809H444.549C444.646 262.809 444.747 262.809 444.841 262.809C443.773 261.828 442.121 261.46 439.981 259.991C439.301 260.848 438.428 261.46 437.452 261.46C436.482 261.46 435.608 260.848 434.831 259.991Z" fill="url(#paint56_linear_239_41)"/>
<path fill-rule="evenodd" clip-rule="evenodd" d="M437.648 249.442L433.371 248.094V249.319C433.177 250.177 433.274 251.034 433.468 252.142C433.663 252.632 433.957 254.964 433.957 254.964C434.051 253.735 434.051 252.51 434.44 251.53C435.22 252.018 436.385 252.263 437.748 252.263C438.913 252.263 440.176 252.018 440.953 251.53C441.15 252.878 440.953 254.102 440.855 255.454C440.855 255.454 441.438 252.999 441.632 252.263C441.827 251.773 441.927 251.161 441.927 250.544C442.025 250.544 442.025 250.426 442.025 250.299C442.025 250.056 442.025 249.687 442.025 249.442V248.094L437.648 249.442Z" fill="url(#paint57_linear_239_41)"/>
<path fill-rule="evenodd" clip-rule="evenodd" d="M430.454 246.253L432.011 246.869L432.107 246.624L432.691 246.498L432.788 246.624L432.205 246.747V246.869C432.205 246.869 431.137 249.197 431.234 250.299C431.234 250.299 431.914 250.791 432.691 250.299L432.788 247.237V246.992L433.857 246.747L433.759 246.992L432.982 247.237L433.37 247.359L437.648 248.707L442.025 247.359L444.941 246.253L437.648 243.557L430.454 246.253Z" fill="url(#paint58_linear_239_41)"/>
<path fill-rule="evenodd" clip-rule="evenodd" d="M467.88 249.442L463.6 248.094V249.075C463.406 250.056 463.406 251.034 463.701 252.142C463.797 252.632 464.186 254.964 464.186 254.964C464.283 253.735 464.186 252.51 464.672 251.53C465.449 252.018 466.614 252.263 467.88 252.263C469.142 252.263 470.311 252.018 471.088 251.53C471.282 252.878 471.088 254.102 471.088 255.454C471.088 255.454 471.574 252.999 471.866 252.263C472.253 250.915 472.351 249.564 472.059 248.461V248.094L467.88 249.442Z" fill="url(#paint59_linear_239_41)"/>
<path fill-rule="evenodd" clip-rule="evenodd" d="M460.784 246.253L462.24 246.869L462.338 246.624L462.924 246.498L463.017 246.624L462.532 246.747L462.434 246.869C462.434 246.869 461.367 249.197 461.561 250.299C461.561 250.299 462.24 250.791 462.924 250.299L463.017 247.237V246.992L464.089 246.747L463.991 246.992L463.211 247.237L463.6 247.359L467.88 248.707L472.059 247.359L474.88 246.253L467.88 243.557L460.784 246.253Z" fill="url(#paint60_linear_239_41)"/>
<path fill-rule="evenodd" clip-rule="evenodd" d="M464.964 260.236C462.924 261.707 461.269 262.075 460.201 262.809C460.396 262.932 460.59 262.932 460.881 262.932H462.435L461.367 264.401C461.269 264.647 461.075 264.892 460.784 265.018C461.561 265.508 462.338 265.998 462.823 266.611C463.406 267.346 463.797 268.081 464.089 268.938H467.197H467.589H467.783H467.88H468.463H476.724C476.724 261.829 474.584 263.299 470.311 260.236L468.755 265.631L468.269 262.075H468.365C468.463 261.95 468.755 261.46 468.755 261.093C468.755 260.726 468.075 260.97 467.686 260.97C467.298 260.97 466.715 260.726 466.715 261.093C466.715 261.46 467.003 261.95 467.103 262.075H467.197L466.715 265.877L464.964 260.236Z" fill="url(#paint61_linear_239_41)"/>
<path fill-rule="evenodd" clip-rule="evenodd" d="M444.548 263.666C444.941 264.283 445.423 264.647 446.009 264.647C443.286 266.98 441.632 266.855 441.15 272.741H452.717H452.81H464.089C463.7 266.98 461.949 266.733 459.033 264.647C459.715 264.647 460.395 264.283 460.88 263.666C459.227 263.79 458.353 262.319 458.158 260.48C457.867 258.516 457.77 256.434 457.673 254.964C457.478 255.454 457.187 255.699 456.895 255.572C456.407 257.904 454.853 259.863 454.853 259.863C454.853 260.48 455.242 261.707 455.339 262.196C455.144 262.687 454.95 263.054 454.755 263.299C453.397 264.892 450.965 264.773 449.8 262.319C450.092 261.584 450.383 260.48 450.383 259.863C450.383 259.863 448.825 258.149 448.34 255.572C448.145 255.572 447.854 255.327 447.659 254.964C447.659 256.311 447.563 258.394 447.271 260.358C447.078 262.319 446.3 263.79 444.548 263.666Z" fill="url(#paint62_linear_239_41)"/>
<path fill-rule="evenodd" clip-rule="evenodd" d="M443.869 243.434L445.815 244.169L445.912 243.801H446.592H446.688L446.107 244.047L446.009 244.292C446.009 244.292 444.747 247.115 444.941 248.585C444.941 248.585 445.718 249.075 446.592 248.585L446.786 244.659V244.414L447.951 244.047L447.854 244.292L446.98 244.659L447.369 244.782L452.616 246.38L457.77 244.782L461.269 243.434L452.616 240L443.869 243.434Z" fill="url(#paint63_linear_239_41)"/>
<path fill-rule="evenodd" clip-rule="evenodd" d="M448.732 250.791C448.146 251.529 447.563 251.651 447.563 250.791C447.466 250.299 447.369 249.932 447.369 249.442V249.319V248.094V246.498L452.616 248.217L457.77 246.498V248.461C457.868 249.197 457.868 250.055 457.77 250.915C457.77 251.034 457.673 251.406 457.576 251.651C457.478 251.529 457.382 251.529 457.285 251.529C457.091 251.284 456.993 251.161 456.896 250.915C456.702 250.791 456.702 250.791 456.605 250.791C455.63 251.284 454.174 251.529 452.616 251.529C451.063 251.529 449.703 251.284 448.732 250.791Z" fill="url(#paint64_linear_239_41)"/>
<path fill-rule="evenodd" clip-rule="evenodd" d="M488.683 264.647C488.097 264.039 486.834 264.401 485.863 265.263C485.568 265.508 485.179 265.878 484.985 266.12C483.821 267.714 478.181 275.931 478.181 276.053L477.987 276.177L478.181 276.299C479.349 276.544 480.126 277.156 480.321 278.013C480.612 279.365 479.738 280.837 477.893 282.434C476.336 283.781 474.102 285.128 471.38 286.352C471.574 286.231 471.866 285.985 472.253 285.741C474.001 284.515 475.753 283.291 477.016 282.184C478.961 280.468 479.641 279.242 479.349 278.14C479.059 277.401 478.476 277.156 477.699 277.156C476.627 277.279 474.977 278.14 473.224 278.875C472.059 279.488 471.088 280.1 470.211 280.345C467.391 281.327 464.478 282.306 461.755 284.76C461.269 285.128 460.784 285.496 460.493 285.985C458.45 288.071 456.508 290.401 454.659 292.978L454.368 293.223L460.59 296.897C461.173 296.291 461.658 295.674 462.24 295.182C463.017 294.447 463.797 293.957 464.575 293.466C465.643 292.978 468.269 291.997 470.794 290.891C473.419 289.788 475.85 288.686 476.724 288.317C477.306 287.95 477.792 287.58 478.282 287.214C479.349 286.352 480.126 284.639 480.903 283.168C481.194 282.552 481.389 282.184 481.584 281.694L488.582 267.469C489.265 265.753 488.971 265.018 488.683 264.647Z" fill="url(#paint65_linear_239_41)"/>
<g filter="url(#filter0_d_239_41)">
<rect x="6" y="535.681" width="784" height="5.31886" rx="2.65943" fill="#C5EFFF"/>
</g>
<path fill-rule="evenodd" clip-rule="evenodd" d="M353.115 353.649H367.983C367.983 351.705 369.536 350.247 371.38 350.247V334.511C369.536 334.511 367.983 333.051 367.983 331.11H352.823V328.583H374.004V356.172H353.604L353.115 353.649Z" fill="url(#paint66_linear_239_41)"/>
<path fill-rule="evenodd" clip-rule="evenodd" d="M336.115 331.11H320.861C320.861 333.051 319.401 334.511 317.555 334.511V350.247C319.401 350.247 320.861 351.705 320.861 353.649H336.115V356.172H314.933V328.583H336.115V331.11Z" fill="url(#paint67_linear_239_41)"/>
<path fill-rule="evenodd" clip-rule="evenodd" d="M363.22 342.378C363.22 344.513 361.473 346.167 359.43 346.167C357.291 346.167 355.642 344.513 355.642 342.378C355.642 340.337 357.291 338.59 359.43 338.59C361.473 338.59 363.22 340.337 363.22 342.378Z" fill="url(#paint68_linear_239_41)"/>
<path fill-rule="evenodd" clip-rule="evenodd" d="M325.62 342.378C325.62 340.337 327.367 338.59 329.507 338.59C331.545 338.59 333.296 340.337 333.296 342.378C333.296 344.513 331.545 346.167 329.507 346.167C327.367 346.167 325.62 344.513 325.62 342.378Z" fill="url(#paint69_linear_239_41)"/>
<path fill-rule="evenodd" clip-rule="evenodd" d="M351.368 328H337.472V356.758H344.179H351.368V346.946V328Z" fill="url(#paint70_linear_239_41)"/>
<path fill-rule="evenodd" clip-rule="evenodd" d="M308.133 364.433C308.617 363.167 310.659 362.392 312.989 362.586C313.571 362.683 314.254 362.881 314.837 363.074C317.654 363.85 332.127 368.902 332.321 368.998L332.616 369.096L332.423 369.289C330.768 370.651 329.993 372.108 330.38 373.271C330.866 375.12 333.198 376.188 337.181 376.479C340.582 376.771 344.955 376.479 350.103 375.509C349.52 375.509 348.841 375.509 348.259 375.605C344.567 375.605 341.07 375.605 338.346 375.411C334.169 375.024 332.228 374.052 331.933 372.497C331.84 371.429 332.423 370.553 333.879 369.873C335.527 369.096 338.735 368.707 341.943 368.124C344.081 367.834 346.12 367.543 347.482 367.155C352.533 365.793 357.781 364.53 363.706 364.919C364.676 365.112 365.65 365.21 366.523 365.404C371.186 366.18 375.655 367.25 380.418 368.61L381 368.707L374.004 378.715C372.743 378.424 371.477 378.228 370.216 378.133C368.565 377.935 367.009 378.036 365.552 378.228C363.511 378.52 358.751 379.491 354.086 380.462C349.326 381.53 344.761 382.407 343.014 382.601C341.943 382.795 341.07 382.795 339.999 382.698C337.764 382.503 335.334 381.241 333.005 380.074C332.321 379.588 331.545 379.2 330.962 378.812L310.17 367.64C307.841 366.278 307.841 365.015 308.133 364.433Z" fill="url(#paint71_linear_239_41)"/>
<path d="M341.786 336C342.25 336 342.613 336.227 342.876 336.681C343.155 337.117 343.309 337.717 343.34 338.48V341.342H343.99L345.08 342.65H343.34V346.356C343.34 346.647 343.433 346.911 343.619 347.147C343.804 347.383 344.106 347.501 344.523 347.501C345.064 347.501 345.637 347.147 346.24 346.438C346.858 345.711 347.183 344.966 347.214 344.203L346.936 344.231C345.946 344.231 345.451 343.613 345.451 342.377C345.451 341.959 345.567 341.587 345.799 341.26C346.031 340.933 346.418 340.769 346.959 340.769C347.531 340.769 348.01 341.06 348.397 341.642C348.799 342.223 349 342.932 349 343.767C349 345.003 348.552 346.184 347.655 347.31C346.773 348.437 345.722 349 344.5 349C344.052 349 343.572 348.773 343.062 348.319C342.567 347.846 342.273 347.392 342.18 346.956V342.65H341.067L340 341.342H342.18V338.753C342.18 338.226 341.91 337.917 341.369 337.826C341.121 337.826 340.959 337.871 340.881 337.962C340.742 337.69 340.611 337.363 340.487 336.981V336.845C340.487 336.609 340.642 336.409 340.951 336.245C341.26 336.082 341.539 336 341.786 336Z" fill="white"/>
<path fill-rule="evenodd" clip-rule="evenodd" d="M483.001 370.027V369.199L482.177 369.01C477.354 367.801 477.228 363.226 477.228 363.035V362.144L476.401 361.955C476.211 361.889 472.212 361.001 469.548 361.001C466.819 361.001 462.821 361.889 462.633 361.955L461.807 362.144V363.035C461.807 363.226 461.743 367.801 456.857 369.01L456.033 369.199V370.027C455.969 370.218 455.843 373.775 457.364 378.161C458.761 382.23 461.934 387.886 469.04 391.51L469.548 391.764L470.057 391.51C477.101 387.886 480.273 382.23 481.67 378.161C483.192 373.775 483.065 370.218 483.001 370.027Z" fill="url(#paint72_linear_239_41)"/>
<path fill-rule="evenodd" clip-rule="evenodd" d="M483.468 329.082L483.857 329.563C483.857 329.563 487.464 326.99 485.882 324.572C483.852 322.518 480.58 325.509 480.58 325.509L480.968 325.989C480.968 325.989 483.818 323.994 484.915 325.353C486.013 326.713 483.468 329.082 483.468 329.082ZM439.795 331.155L455.376 343.376L456.828 342.201L440.611 330.495L439.795 331.155ZM480.633 323.741C484.119 321.425 486.872 322.94 487.445 323.309C487.688 323.945 488.591 326.956 485.595 329.878C482.58 332.826 476.681 338.04 471.384 342.565C471.507 343.143 471.651 343.822 471.812 344.583C472.064 345.772 472.359 347.163 472.685 348.688L473.525 348.008C474.273 347.406 475.365 347.523 475.967 348.265C476.574 349.013 476.457 350.11 475.71 350.712L473.496 352.504C473.725 353.583 473.853 355.108 473.983 356.651C474.1 358.038 474.217 359.44 474.411 360.542C472.982 360.283 471.052 360 469.548 360C468.726 360 467.79 360.081 466.877 360.195L462.387 349.076L460.935 350.251L465.915 360.328C465.184 360.438 464.504 360.561 463.954 360.668C462.218 357.182 460.667 354.08 459.687 352.12C453.987 356.602 447.433 361.598 443.364 364.443C441.99 365.405 440.761 366.143 439.65 366.701C440.402 370.085 441.567 375.95 441.82 380.602C441.864 381.408 439.722 383.063 439.722 383.063L432.556 368.648L444.048 359.335C444.306 359.127 444.345 358.753 444.136 358.495C443.927 358.243 443.558 358.199 443.301 358.408L431.862 367.677L419 357.437C419 357.437 421.068 355.689 421.85 355.903C426.361 357.126 431.871 359.51 435.018 360.947C435.794 359.986 436.77 358.937 437.994 357.801C441.66 354.388 447.986 348.965 453.604 344.303C449.025 340.643 433.105 327.927 427.997 323.965C427.356 323.465 426.88 323.105 426.628 322.916C427.079 322.603 427.494 322.243 427.906 321.885C429.587 320.427 431.228 319.003 435.154 320.945C436.435 321.576 439.217 322.858 442.611 324.406L444.786 322.649C445.534 322.042 446.627 322.158 447.233 322.906C447.836 323.654 447.719 324.746 446.971 325.353L446.16 326.009C449.418 327.485 452.934 329.063 456.124 330.49L458.08 328.907C458.828 328.305 459.92 328.417 460.522 329.165C461.129 329.912 461.013 331.01 460.265 331.612L459.682 332.083C460.901 332.626 462.017 333.124 462.984 333.554C464.063 334.035 464.956 334.432 465.596 334.719C471.044 330.558 477.195 326.023 480.633 323.741Z" fill="url(#paint73_linear_239_41)"/>
<path fill-rule="evenodd" clip-rule="evenodd" d="M469.983 389.898V376.847H480.238C480.174 377.173 480.045 377.564 479.917 377.891C478.136 383.178 474.762 387.223 469.983 389.898Z" fill="white"/>
<path fill-rule="evenodd" clip-rule="evenodd" d="M463.586 363.625C464.858 363.371 467.337 362.865 469.051 362.865V375.916H458.755C458.057 373.571 457.93 371.609 457.865 370.53C461.805 369.201 463.268 365.842 463.586 363.625Z" fill="white"/>
<path d="M495 453.559H480.618V451.33H495V453.559Z" fill="url(#paint74_linear_239_41)"/>
<path d="M495 462.069H480.618V459.836H495V462.069Z" fill="url(#paint75_linear_239_41)"/>
<path d="M492.27 456.455H477.892V454.223H492.27V456.455Z" fill="url(#paint76_linear_239_41)"/>
<path d="M492.27 459.263H477.892V457.034H492.27V459.263Z" fill="url(#paint77_linear_239_41)"/>
<path d="M492.27 464.879H477.892V462.646H492.27V464.879Z" fill="url(#paint78_linear_239_41)"/>
<path fill-rule="evenodd" clip-rule="evenodd" d="M451.31 421.272C451.31 421.272 453.269 414.742 456.155 414.058V414C456.237 414 456.317 414.005 456.398 414.015C456.478 414.005 456.56 414 456.642 414V414.058C459.529 414.742 461.488 421.272 461.488 421.272C461.488 421.272 467.305 421.272 466.821 429.271C471.911 430.847 490.09 442.36 471.184 461.509L467.711 465.024H467.145H452.098C452.811 462.009 452.722 459.817 452.672 459.671V458.87L451.859 458.687C447.099 457.518 446.975 453.092 446.975 452.908V452.045L446.159 451.863C445.971 451.799 442.025 450.94 439.395 450.94C437.869 450.94 435.94 451.216 434.522 451.467C429.123 438.355 441.851 430.548 445.977 429.271C445.492 421.272 451.31 421.272 451.31 421.272ZM468.249 433.371L457.27 435.406L457.668 437.551L468.647 435.516L468.249 433.371Z" fill="url(#paint79_linear_239_41)"/>
<path d="M445.935 429.271C448.857 430.403 457.134 431.986 466.863 429.271" stroke="#B9F7FF"/>
<path d="M451.308 421.353C452.817 422.107 456.964 423.162 461.489 421.353" stroke="#B9F7FF"/>
<path fill-rule="evenodd" clip-rule="evenodd" d="M451.646 460.697V459.896L450.833 459.713C446.073 458.544 445.949 454.118 445.949 453.934V453.072L445.133 452.889C444.945 452.825 440.999 451.966 438.369 451.966C435.677 451.966 431.731 452.825 431.546 452.889L430.73 453.072V453.934C430.73 454.118 430.668 458.544 425.846 459.713L425.033 459.896V460.697C424.97 460.881 424.845 464.323 426.346 468.565C427.725 472.5 430.856 477.971 437.869 481.477L438.369 481.723L438.872 481.477C445.824 477.971 448.953 472.5 450.332 468.565C451.834 464.323 451.709 460.881 451.646 460.697Z" fill="url(#paint80_linear_239_41)"/>
<path fill-rule="evenodd" clip-rule="evenodd" d="M438.339 479.67V467.357H448.6C448.536 467.664 448.407 468.033 448.28 468.341C446.497 473.33 443.121 477.146 438.339 479.67Z" fill="white"/>
<path fill-rule="evenodd" clip-rule="evenodd" d="M432.825 454.735C434.109 454.495 436.61 454.018 438.339 454.018V466.331H427.951C427.247 464.118 427.119 462.267 427.052 461.25C431.029 459.996 432.505 456.826 432.825 454.735Z" fill="white"/>
<path fill-rule="evenodd" clip-rule="evenodd" d="M467.861 435.669C468.581 434.437 468.883 432.952 468.612 431.437C468.007 428.054 464.774 425.803 461.392 426.408C458.009 427.013 455.758 430.245 456.363 433.628C456.639 435.17 457.461 436.477 458.594 437.385L467.861 435.669Z" fill="url(#paint81_linear_239_41)"/>
<path fill-rule="evenodd" clip-rule="evenodd" d="M466.461 435.929C467.442 434.779 467.919 433.216 467.632 431.613C467.124 428.771 464.409 426.88 461.567 427.388C458.726 427.896 456.835 430.612 457.343 433.453C457.634 435.079 458.648 436.394 459.994 437.126L466.461 435.929Z" fill="white"/>
<path fill-rule="evenodd" clip-rule="evenodd" d="M465.622 436.084C466.801 435.026 467.421 433.402 467.121 431.729C466.662 429.158 464.205 427.447 461.634 427.907C459.064 428.367 457.352 430.823 457.812 433.394C458.115 435.087 459.284 436.408 460.782 436.98L465.622 436.084Z" fill="url(#paint82_linear_239_41)"/>
<path d="M463.419 435.342C462.795 435.454 462.313 435.405 461.97 435.195C461.628 434.985 461.424 434.697 461.358 434.329C461.3 434.001 461.348 433.705 461.504 433.44C461.66 433.175 461.931 432.933 462.319 432.715L462.907 433.615C462.742 433.679 462.629 433.75 462.569 433.828C462.509 433.907 462.486 433.992 462.503 434.084C462.524 434.202 462.597 434.29 462.723 434.349C462.848 434.402 463.021 434.408 463.245 434.368C463.586 434.307 463.834 434.181 463.99 433.991C464.144 433.794 464.2 433.577 464.158 433.341C464.124 433.151 464.051 432.991 463.94 432.862C463.829 432.733 463.662 432.61 463.438 432.494C463.22 432.378 462.937 432.249 462.586 432.108C462.125 431.913 461.762 431.741 461.498 431.592C461.241 431.441 461.051 431.286 460.927 431.125C460.803 430.958 460.72 430.763 460.68 430.539C460.65 430.369 460.664 430.18 460.721 429.973C460.778 429.76 460.874 429.557 461.008 429.363L462.06 429.734C461.995 429.827 461.944 429.921 461.907 430.015C461.869 430.103 461.858 430.193 461.874 430.285C461.887 430.357 461.913 430.424 461.951 430.485C461.989 430.546 462.057 430.608 462.157 430.672C462.256 430.735 462.402 430.814 462.595 430.908C462.794 430.994 463.054 431.107 463.377 431.246C463.787 431.416 464.119 431.59 464.374 431.768C464.635 431.938 464.836 432.133 464.977 432.351C465.124 432.569 465.226 432.838 465.284 433.16C465.351 433.534 465.313 433.872 465.171 434.176C465.035 434.478 464.816 434.73 464.514 434.933C464.217 435.128 463.852 435.265 463.419 435.342Z" fill="white"/>
<line x1="399.25" y1="267" x2="399.25" y2="292" stroke="#E0E0E0" stroke-width="0.5"/>
<line x1="399.25" y1="325" x2="399.25" y2="350" stroke="#E0E0E0" stroke-width="0.5"/>
<line x1="379" y1="311.25" x2="353" y2="311.25" stroke="#E0E0E0" stroke-width="0.5"/>
<line x1="445" y1="311.25" x2="419" y2="311.25" stroke="#E0E0E0" stroke-width="0.5"/>
<line x1="399.25" y1="362" x2="399.25" y2="387" stroke="#E0E0E0" stroke-width="0.5"/>
<line x1="399.25" y1="420" x2="399.25" y2="445" stroke="#E0E0E0" stroke-width="0.5"/>
<line x1="379" y1="406.25" x2="353" y2="406.25" stroke="#E0E0E0" stroke-width="0.5"/>
<line x1="445" y1="406.25" x2="419" y2="406.25" stroke="#E0E0E0" stroke-width="0.5"/>
<line x1="285.25" y1="267" x2="285.25" y2="292" stroke="#E0E0E0" stroke-width="0.5"/>
<line x1="285.25" y1="325" x2="285.25" y2="350" stroke="#E0E0E0" stroke-width="0.5"/>
<line x1="265" y1="311.25" x2="239" y2="311.25" stroke="#E0E0E0" stroke-width="0.5"/>
<line x1="331" y1="311.25" x2="305" y2="311.25" stroke="#E0E0E0" stroke-width="0.5"/>
<line x1="285.25" y1="362" x2="285.25" y2="387" stroke="#E0E0E0" stroke-width="0.5"/>
<line x1="285.25" y1="420" x2="285.25" y2="445" stroke="#E0E0E0" stroke-width="0.5"/>
<line x1="265" y1="406.25" x2="239" y2="406.25" stroke="#E0E0E0" stroke-width="0.5"/>
<line x1="331" y1="406.25" x2="305" y2="406.25" stroke="#E0E0E0" stroke-width="0.5"/>
<defs>
<filter id="filter0_d_239_41" x="0" y="527.681" width="804" height="25.3193" filterUnits="userSpaceOnUse" color-interpolation-filters="sRGB">
<feFlood flood-opacity="0" result="BackgroundImageFix"/>
<feColorMatrix in="SourceAlpha" type="matrix" values="0 0 0 0 0 0 0 0 0 0 0 0 0 0 0 0 0 0 127 0" result="hardAlpha"/>
<feOffset dx="4" dy="2"/>
<feGaussianBlur stdDeviation="5"/>
<feComposite in2="hardAlpha" operator="out"/>
<feColorMatrix type="matrix" values="0 0 0 0 0 0 0 0 0 0 0 0 0 0 0 0 0 0 0.25 0"/>
<feBlend mode="normal" in2="BackgroundImageFix" result="effect1_dropShadow_239_41"/>
<feBlend mode="normal" in="SourceGraphic" in2="effect1_dropShadow_239_41" result="shape"/>
</filter>
<linearGradient id="paint0_linear_239_41" x1="197.385" y1="54.5845" x2="197.385" y2="539.107" gradientUnits="userSpaceOnUse">
<stop stop-color="#72C1D6"/>
<stop offset="1" stop-color="#2C92AD"/>
</linearGradient>
<linearGradient id="paint1_linear_239_41" x1="307.239" y1="92.7705" x2="307.239" y2="149.331" gradientUnits="userSpaceOnUse">
<stop stop-color="#72C1D6"/>
<stop offset="0.536458" stop-color="#2C92AD"/>
</linearGradient>
<linearGradient id="paint2_linear_239_41" x1="307.625" y1="98.5566" x2="307.625" y2="142.263" gradientUnits="userSpaceOnUse">
<stop stop-color="#72C1D6"/>
<stop offset="0.520833" stop-color="#2C92AD"/>
</linearGradient>
<linearGradient id="paint3_linear_239_41" x1="73.9915" y1="209.624" x2="67.6327" y2="344.945" gradientUnits="userSpaceOnUse">
<stop stop-color="#038C86"/>
</linearGradient>
<linearGradient id="paint4_linear_239_41" x1="73.9915" y1="234.573" x2="67.6327" y2="369.894" gradientUnits="userSpaceOnUse">
<stop stop-color="#038C86"/>
</linearGradient>
<linearGradient id="paint5_linear_239_41" x1="73.9915" y1="257.712" x2="67.6327" y2="393.033" gradientUnits="userSpaceOnUse">
<stop stop-color="#038C86"/>
</linearGradient>
<linearGradient id="paint6_linear_239_41" x1="73.9915" y1="280.851" x2="67.6327" y2="416.172" gradientUnits="userSpaceOnUse">
<stop stop-color="#038C86"/>
</linearGradient>
<linearGradient id="paint7_linear_239_41" x1="68.1412" y1="360.149" x2="68.1412" y2="373.004" gradientUnits="userSpaceOnUse">
<stop stop-color="#00A1B7"/>
<stop offset="1" stop-color="#00BFD9"/>
</linearGradient>
<linearGradient id="paint8_linear_239_41" x1="197.389" y1="0.603516" x2="197.389" y2="83.3295" gradientUnits="userSpaceOnUse">
<stop offset="0.479167" stop-color="#72C1D6"/>
<stop offset="1" stop-color="#2C92AD"/>
</linearGradient>
<linearGradient id="paint9_linear_239_41" x1="128.558" y1="198.321" x2="128.558" y2="203.463" gradientUnits="userSpaceOnUse">
<stop stop-color="#C0E9F8"/>
<stop offset="1" stop-color="#89DCFB"/>
</linearGradient>
<linearGradient id="paint10_linear_239_41" x1="195.403" y1="159.757" x2="195.403" y2="164.899" gradientUnits="userSpaceOnUse">
<stop stop-color="#C0E9F8"/>
<stop offset="1" stop-color="#89DCFB"/>
</linearGradient>
<linearGradient id="paint11_linear_239_41" x1="195.403" y1="172.611" x2="195.403" y2="177.753" gradientUnits="userSpaceOnUse">
<stop stop-color="#C0E9F8"/>
<stop offset="1" stop-color="#89DCFB"/>
</linearGradient>
<linearGradient id="paint12_linear_239_41" x1="195.403" y1="185.467" x2="195.403" y2="190.609" gradientUnits="userSpaceOnUse">
<stop stop-color="#C0E9F8"/>
<stop offset="1" stop-color="#89DCFB"/>
</linearGradient>
<linearGradient id="paint13_linear_239_41" x1="195.403" y1="380.717" x2="195.403" y2="385.859" gradientUnits="userSpaceOnUse">
<stop stop-color="#C0E9F8"/>
<stop offset="1" stop-color="#89DCFB"/>
</linearGradient>
<linearGradient id="paint14_linear_239_41" x1="195.403" y1="393.571" x2="195.403" y2="398.713" gradientUnits="userSpaceOnUse">
<stop stop-color="#C0E9F8"/>
<stop offset="1" stop-color="#89DCFB"/>
</linearGradient>
<linearGradient id="paint15_linear_239_41" x1="195.403" y1="406.426" x2="195.403" y2="411.568" gradientUnits="userSpaceOnUse">
<stop stop-color="#C0E9F8"/>
<stop offset="1" stop-color="#89DCFB"/>
</linearGradient>
<linearGradient id="paint16_linear_239_41" x1="92.5649" y1="419.28" x2="92.5649" y2="424.422" gradientUnits="userSpaceOnUse">
<stop stop-color="#C0E9F8"/>
<stop offset="1" stop-color="#89DCFB"/>
</linearGradient>
<linearGradient id="paint17_linear_239_41" x1="195.403" y1="319.014" x2="195.403" y2="324.156" gradientUnits="userSpaceOnUse">
<stop stop-color="#C0E9F8"/>
<stop offset="1" stop-color="#89DCFB"/>
</linearGradient>
<linearGradient id="paint18_linear_239_41" x1="195.403" y1="331.869" x2="195.403" y2="337.011" gradientUnits="userSpaceOnUse">
<stop stop-color="#C0E9F8"/>
<stop offset="1" stop-color="#89DCFB"/>
</linearGradient>
<linearGradient id="paint19_linear_239_41" x1="195.403" y1="344.724" x2="195.403" y2="349.866" gradientUnits="userSpaceOnUse">
<stop stop-color="#C0E9F8"/>
<stop offset="1" stop-color="#89DCFB"/>
</linearGradient>
<linearGradient id="paint20_linear_239_41" x1="209.543" y1="221.317" x2="209.543" y2="236.743" gradientUnits="userSpaceOnUse">
<stop stop-color="#C0E9F8"/>
<stop offset="1" stop-color="#89DCFB"/>
</linearGradient>
<linearGradient id="paint21_linear_239_41" x1="209.543" y1="290.733" x2="209.543" y2="306.159" gradientUnits="userSpaceOnUse">
<stop stop-color="#C0E9F8"/>
<stop offset="1" stop-color="#89DCFB"/>
</linearGradient>
<linearGradient id="paint22_linear_239_41" x1="119" y1="358" x2="119" y2="373" gradientUnits="userSpaceOnUse">
<stop stop-color="#C0E9F8"/>
<stop offset="1" stop-color="#89DCFB"/>
</linearGradient>
<linearGradient id="paint23_linear_239_41" x1="209.543" y1="267.595" x2="209.543" y2="283.02" gradientUnits="userSpaceOnUse">
<stop stop-color="#C0E9F8"/>
<stop offset="1" stop-color="#89DCFB"/>
</linearGradient>
<linearGradient id="paint24_linear_239_41" x1="209.543" y1="244.456" x2="209.543" y2="259.882" gradientUnits="userSpaceOnUse">
<stop stop-color="#C0E9F8"/>
<stop offset="1" stop-color="#89DCFB"/>
</linearGradient>
<linearGradient id="paint25_linear_239_41" x1="155.553" y1="100.483" x2="155.553" y2="144.189" gradientUnits="userSpaceOnUse">
<stop stop-color="#BBE8F9"/>
<stop offset="1" stop-color="#E7F8FF"/>
</linearGradient>
<linearGradient id="paint26_linear_239_41" x1="308.926" y1="453.09" x2="281.931" y2="474.943" gradientUnits="userSpaceOnUse">
<stop stop-color="#FFB200"/>
<stop offset="1" stop-color="#FF8B37"/>
</linearGradient>
<linearGradient id="paint27_linear_239_41" x1="425.756" y1="531.329" x2="425.756" y2="186.492" gradientUnits="userSpaceOnUse">
<stop stop-color="#1F7EA1"/>
<stop offset="1" stop-color="#32B5D8"/>
</linearGradient>
<linearGradient id="paint28_linear_239_41" x1="427.127" y1="539.23" x2="427.127" y2="509.058" gradientUnits="userSpaceOnUse">
<stop offset="0.296875" stop-color="#1A3D49"/>
<stop offset="0.9999" stop-color="#4BAAD2"/>
<stop offset="1" stop-color="#2F6675"/>
</linearGradient>
<linearGradient id="paint29_linear_239_41" x1="744.579" y1="532.66" x2="744.579" y2="529.389" gradientUnits="userSpaceOnUse">
<stop stop-color="#6DA5BD"/>
<stop offset="1" stop-color="#385B6A" stop-opacity="0.62"/>
</linearGradient>
<linearGradient id="paint30_linear_239_41" x1="744.865" y1="538.417" x2="744.865" y2="532.661" gradientUnits="userSpaceOnUse">
<stop stop-color="#6DA5BD"/>
<stop offset="1" stop-color="#385B6A" stop-opacity="0.62"/>
</linearGradient>
<linearGradient id="paint31_linear_239_41" x1="744.993" y1="500.641" x2="744.993" y2="500.161" gradientUnits="userSpaceOnUse">
<stop stop-color="#6DA5BD"/>
<stop offset="1" stop-color="#385B6A" stop-opacity="0.62"/>
</linearGradient>
<linearGradient id="paint32_linear_239_41" x1="593.329" y1="274.528" x2="593.329" y2="289.732" gradientUnits="userSpaceOnUse">
<stop stop-color="#DDF5FF"/>
<stop offset="1" stop-color="#ADE8FF"/>
</linearGradient>
<linearGradient id="paint33_linear_239_41" x1="590.544" y1="249.525" x2="590.544" y2="264.418" gradientUnits="userSpaceOnUse">
<stop stop-color="#DDF5FF"/>
<stop offset="1" stop-color="#ADE8FF"/>
</linearGradient>
<linearGradient id="paint34_linear_239_41" x1="563.418" y1="344.201" x2="563.418" y2="359.094" gradientUnits="userSpaceOnUse">
<stop stop-color="#DDF5FF"/>
<stop offset="1" stop-color="#ADE8FF"/>
</linearGradient>
<linearGradient id="paint35_linear_239_41" x1="593.405" y1="320.798" x2="593.405" y2="336.754" gradientUnits="userSpaceOnUse">
<stop stop-color="#DDF5FF"/>
<stop offset="1" stop-color="#ADE8FF"/>
</linearGradient>
<linearGradient id="paint36_linear_239_41" x1="593.329" y1="297.781" x2="593.329" y2="312.985" gradientUnits="userSpaceOnUse">
<stop stop-color="#DDF5FF"/>
<stop offset="1" stop-color="#ADE8FF"/>
</linearGradient>
<linearGradient id="paint37_linear_239_41" x1="249.252" y1="477.992" x2="249.252" y2="434.544" gradientUnits="userSpaceOnUse">
<stop stop-color="#5A8F7B"/>
<stop offset="1" stop-color="#256D85"/>
</linearGradient>
<linearGradient id="paint38_linear_239_41" x1="223.937" y1="472.337" x2="223.937" y2="421.999" gradientUnits="userSpaceOnUse">
<stop stop-color="#2C92AD"/>
<stop offset="1" stop-color="#72C1D6"/>
</linearGradient>
<linearGradient id="paint39_linear_239_41" x1="250.974" y1="369.416" x2="250.974" y2="361.355" gradientUnits="userSpaceOnUse">
<stop stop-color="#2C92AD"/>
<stop offset="1" stop-color="#72C1D6"/>
</linearGradient>
<linearGradient id="paint40_linear_239_41" x1="216.364" y1="373.098" x2="216.364" y2="366.331" gradientUnits="userSpaceOnUse">
<stop stop-color="#2C92AD"/>
<stop offset="1" stop-color="#72C1D6"/>
</linearGradient>
<linearGradient id="paint41_linear_239_41" x1="234.559" y1="355.792" x2="234.559" y2="346.543" gradientUnits="userSpaceOnUse">
<stop stop-color="#2C92AD"/>
<stop offset="1" stop-color="#72C1D6"/>
</linearGradient>
<linearGradient id="paint42_linear_239_41" x1="234.262" y1="392.988" x2="234.262" y2="356.645" gradientUnits="userSpaceOnUse">
<stop offset="0.494792" stop-color="#2C92AD"/>
<stop offset="1" stop-color="#72C1D6"/>
</linearGradient>
<linearGradient id="paint43_linear_239_41" x1="219.198" y1="345.186" x2="219.198" y2="324.303" gradientUnits="userSpaceOnUse">
<stop stop-color="#2C92AD"/>
<stop offset="1" stop-color="#72C1D6"/>
</linearGradient>
<linearGradient id="paint44_linear_239_41" x1="234.218" y1="345.666" x2="234.218" y2="319" gradientUnits="userSpaceOnUse">
<stop stop-color="#2C92AD"/>
<stop offset="1" stop-color="#72C1D6"/>
</linearGradient>
<linearGradient id="paint45_linear_239_41" x1="249.327" y1="345.186" x2="249.327" y2="324.303" gradientUnits="userSpaceOnUse">
<stop stop-color="#2C92AD"/>
<stop offset="1" stop-color="#72C1D6"/>
</linearGradient>
<linearGradient id="paint46_linear_239_41" x1="338.886" y1="478.378" x2="338.886" y2="422.372" gradientUnits="userSpaceOnUse">
<stop stop-color="#2C92AD"/>
<stop offset="1" stop-color="#72C1D6"/>
</linearGradient>
<linearGradient id="paint47_linear_239_41" x1="360.59" y1="448.017" x2="360.59" y2="408" gradientUnits="userSpaceOnUse">
<stop stop-color="#FFC000"/>
<stop offset="1" stop-color="#FFE500"/>
</linearGradient>
<linearGradient id="paint48_linear_239_41" x1="248.447" y1="267.812" x2="248.447" y2="240" gradientUnits="userSpaceOnUse">
<stop stop-color="#FFC000"/>
<stop offset="1" stop-color="#FFE500"/>
</linearGradient>
<linearGradient id="paint49_linear_239_41" x1="236.5" y1="290.667" x2="236.5" y2="244.871" gradientUnits="userSpaceOnUse">
<stop stop-color="#2C92AD"/>
<stop offset="1" stop-color="#72C1D6"/>
</linearGradient>
<linearGradient id="paint50_linear_239_41" x1="349.684" y1="265.212" x2="349.684" y2="236" gradientUnits="userSpaceOnUse">
<stop offset="0.494792" stop-color="#72C1D6"/>
<stop offset="1" stop-color="#55CEE3"/>
</linearGradient>
<linearGradient id="paint51_linear_239_41" x1="349.684" y1="293.779" x2="349.684" y2="270.548" gradientUnits="userSpaceOnUse">
<stop stop-color="#2C92AD"/>
<stop offset="0.5" stop-color="#72C1D6"/>
</linearGradient>
<linearGradient id="paint52_linear_239_41" x1="349.682" y1="278.117" x2="349.682" y2="262.805" gradientUnits="userSpaceOnUse">
<stop stop-color="#FF0000"/>
<stop offset="1" stop-color="#FF8686"/>
</linearGradient>
<linearGradient id="paint53_linear_239_41" x1="315.794" y1="277.342" x2="315.794" y2="279.695" gradientUnits="userSpaceOnUse">
<stop stop-color="#FF8686"/>
<stop offset="1" stop-color="#F91919"/>
</linearGradient>
<linearGradient id="paint54_linear_239_41" x1="315.783" y1="280.518" x2="315.783" y2="293.503" gradientUnits="userSpaceOnUse">
<stop offset="0.145833" stop-color="#72C1D6"/>
<stop offset="0.661458" stop-color="#2C92AD"/>
</linearGradient>
<linearGradient id="paint55_linear_239_41" x1="433.337" y1="296.897" x2="433.337" y2="264.345" gradientUnits="userSpaceOnUse">
<stop offset="0.661458" stop-color="#2C92AD"/>
<stop offset="1" stop-color="#72C1D6"/>
</linearGradient>
<linearGradient id="paint56_linear_239_41" x1="436.579" y1="268.693" x2="436.579" y2="259.991" gradientUnits="userSpaceOnUse">
<stop offset="0.307292" stop-color="#2C92AD"/>
<stop offset="1" stop-color="#72C1D6"/>
</linearGradient>
<linearGradient id="paint57_linear_239_41" x1="437.645" y1="255.454" x2="437.645" y2="248.094" gradientUnits="userSpaceOnUse">
<stop stop-color="#2C92AD"/>
<stop offset="1" stop-color="#72C1D6"/>
</linearGradient>
<linearGradient id="paint58_linear_239_41" x1="437.697" y1="250.518" x2="437.697" y2="243.557" gradientUnits="userSpaceOnUse">
<stop stop-color="#2C92AD"/>
<stop offset="1" stop-color="#72C1D6"/>
</linearGradient>
<linearGradient id="paint59_linear_239_41" x1="467.847" y1="255.454" x2="467.847" y2="248.094" gradientUnits="userSpaceOnUse">
<stop stop-color="#2C92AD"/>
<stop offset="1" stop-color="#72C1D6"/>
</linearGradient>
<linearGradient id="paint60_linear_239_41" x1="467.832" y1="250.518" x2="467.832" y2="243.557" gradientUnits="userSpaceOnUse">
<stop stop-color="#2C92AD"/>
<stop offset="1" stop-color="#72C1D6"/>
</linearGradient>
<linearGradient id="paint61_linear_239_41" x1="468.462" y1="268.938" x2="468.462" y2="260.236" gradientUnits="userSpaceOnUse">
<stop offset="0.307292" stop-color="#2C92AD"/>
<stop offset="1" stop-color="#72C1D6"/>
</linearGradient>
<linearGradient id="paint62_linear_239_41" x1="452.619" y1="272.741" x2="452.619" y2="254.964" gradientUnits="userSpaceOnUse">
<stop offset="0.307292" stop-color="#2C92AD"/>
<stop offset="1" stop-color="#72C1D6"/>
</linearGradient>
<linearGradient id="paint63_linear_239_41" x1="452.569" y1="248.803" x2="452.569" y2="240" gradientUnits="userSpaceOnUse">
<stop stop-color="#2C92AD"/>
<stop offset="1" stop-color="#72C1D6"/>
</linearGradient>
<linearGradient id="paint64_linear_239_41" x1="452.606" y1="251.651" x2="452.606" y2="246.498" gradientUnits="userSpaceOnUse">
<stop stop-color="#2C92AD"/>
<stop offset="0.822917" stop-color="#72C1D6"/>
</linearGradient>
<linearGradient id="paint65_linear_239_41" x1="471.684" y1="296.897" x2="471.684" y2="264.345" gradientUnits="userSpaceOnUse">
<stop offset="0.609375" stop-color="#2C92AD"/>
<stop offset="1" stop-color="#72C1D6"/>
</linearGradient>
<linearGradient id="paint66_linear_239_41" x1="363.414" y1="356.172" x2="363.414" y2="328.583" gradientUnits="userSpaceOnUse">
<stop stop-color="#2C92AD"/>
<stop offset="1" stop-color="#72C1D6"/>
</linearGradient>
<linearGradient id="paint67_linear_239_41" x1="325.524" y1="356.172" x2="325.524" y2="328.583" gradientUnits="userSpaceOnUse">
<stop stop-color="#2C92AD"/>
<stop offset="1" stop-color="#72C1D6"/>
</linearGradient>
<linearGradient id="paint68_linear_239_41" x1="359.431" y1="346.167" x2="359.431" y2="338.59" gradientUnits="userSpaceOnUse">
<stop stop-color="#2C92AD"/>
<stop offset="1" stop-color="#72C1D6"/>
</linearGradient>
<linearGradient id="paint69_linear_239_41" x1="329.458" y1="346.167" x2="329.458" y2="338.59" gradientUnits="userSpaceOnUse">
<stop stop-color="#2C92AD"/>
<stop offset="1" stop-color="#72C1D6"/>
</linearGradient>
<linearGradient id="paint70_linear_239_41" x1="344.42" y1="356.758" x2="344.42" y2="328" gradientUnits="userSpaceOnUse">
<stop stop-color="#2C92AD"/>
<stop offset="1" stop-color="#72C1D6"/>
</linearGradient>
<linearGradient id="paint71_linear_239_41" x1="344.5" y1="382.762" x2="344.5" y2="362.556" gradientUnits="userSpaceOnUse">
<stop stop-color="#2C92AD"/>
<stop offset="1" stop-color="#72C1D6"/>
</linearGradient>
<linearGradient id="paint72_linear_239_41" x1="469.517" y1="391.764" x2="469.517" y2="361.001" gradientUnits="userSpaceOnUse">
<stop stop-color="#5A8F7B"/>
<stop offset="1" stop-color="#256D85"/>
</linearGradient>
<linearGradient id="paint73_linear_239_41" x1="453.381" y1="320" x2="453.381" y2="383.063" gradientUnits="userSpaceOnUse">
<stop stop-color="#72C1D6"/>
<stop offset="0.583333" stop-color="#2C92AD"/>
</linearGradient>
<linearGradient id="paint74_linear_239_41" x1="487.809" y1="451.33" x2="487.809" y2="453.559" gradientUnits="userSpaceOnUse">
<stop offset="0.479167" stop-color="#FFC000"/>
<stop offset="1" stop-color="#FF8B37"/>
</linearGradient>
<linearGradient id="paint75_linear_239_41" x1="487.809" y1="459.836" x2="487.809" y2="462.069" gradientUnits="userSpaceOnUse">
<stop offset="0.479167" stop-color="#FFC000"/>
<stop offset="1" stop-color="#FF8B37"/>
</linearGradient>
<linearGradient id="paint76_linear_239_41" x1="485.081" y1="454.223" x2="485.081" y2="456.455" gradientUnits="userSpaceOnUse">
<stop offset="0.479167" stop-color="#FFC000"/>
<stop offset="1" stop-color="#FF8B37"/>
</linearGradient>
<linearGradient id="paint77_linear_239_41" x1="485.081" y1="457.034" x2="485.081" y2="459.263" gradientUnits="userSpaceOnUse">
<stop offset="0.479167" stop-color="#FFC000"/>
<stop offset="1" stop-color="#FF8B37"/>
</linearGradient>
<linearGradient id="paint78_linear_239_41" x1="485.081" y1="462.646" x2="485.081" y2="464.879" gradientUnits="userSpaceOnUse">
<stop offset="0.479167" stop-color="#FFC000"/>
<stop offset="1" stop-color="#FF8B37"/>
</linearGradient>
<linearGradient id="paint79_linear_239_41" x1="467.872" y1="414" x2="467.872" y2="465.024" gradientUnits="userSpaceOnUse">
<stop stop-color="#72C1D6"/>
<stop offset="1" stop-color="#2C92AD"/>
</linearGradient>
<linearGradient id="paint80_linear_239_41" x1="438.339" y1="481.723" x2="438.339" y2="451.966" gradientUnits="userSpaceOnUse">
<stop stop-color="#5A8F7B"/>
<stop offset="1" stop-color="#256D85"/>
</linearGradient>
<linearGradient id="paint81_linear_239_41" x1="461.392" y1="426.408" x2="463.583" y2="438.657" gradientUnits="userSpaceOnUse">
<stop stop-color="#FFC000"/>
<stop offset="1" stop-color="#FFB800"/>
</linearGradient>
<linearGradient id="paint82_linear_239_41" x1="461.634" y1="427.907" x2="463.299" y2="437.216" gradientUnits="userSpaceOnUse">
<stop stop-color="#FFD658"/>
<stop offset="1" stop-color="#FFB800"/>
</linearGradient>
</defs>
</svg>
