<svg width="25" height="24" viewBox="0 0 25 24" fill="none" xmlns="http://www.w3.org/2000/svg">
<path d="M12.6896 13.0306C13.6276 13.0306 14.5444 12.765 15.3243 12.2673C16.1041 11.7696 16.712 11.0622 17.0709 10.2345C17.4298 9.40685 17.5237 8.49613 17.3407 7.6175C17.1578 6.73886 16.7061 5.93179 16.0429 5.29833C15.3797 4.66487 14.5347 4.23348 13.6148 4.05871C12.6949 3.88394 11.7414 3.97364 10.8748 4.31647C10.0083 4.65929 9.26768 5.23985 8.7466 5.98471C8.22551 6.72958 7.94739 7.60531 7.94739 8.50115C7.94739 9.70244 8.44702 10.8545 9.33636 11.704C10.2257 12.5534 11.4319 13.0306 12.6896 13.0306ZM12.6896 5.26582C13.3596 5.26582 14.0145 5.45556 14.5715 5.81107C15.1286 6.16657 15.5627 6.67186 15.8191 7.26304C16.0755 7.85422 16.1426 8.50474 16.0119 9.13233C15.8812 9.75993 15.5585 10.3364 15.0848 10.7889C14.6111 11.2413 14.0075 11.5495 13.3505 11.6743C12.6934 11.7992 12.0123 11.7351 11.3934 11.4902C10.7744 11.2453 10.2454 10.8307 9.87318 10.2986C9.50098 9.76656 9.30231 9.14104 9.30231 8.50115C9.30231 7.64309 9.65919 6.82017 10.2944 6.21342C10.9297 5.60668 11.7913 5.26582 12.6896 5.26582Z" fill="#79c3f4"/>
<path d="M21.1377 17.8005C20.0512 16.7038 18.742 15.8302 17.29 15.2331C15.8381 14.6361 14.2739 14.3281 12.6931 14.3281C11.1123 14.3281 9.5481 14.6361 8.09614 15.2331C6.64418 15.8302 5.33496 16.7038 4.24852 17.8005C4.01298 18.0408 3.88216 18.3578 3.88269 18.687V22.0906C3.88269 22.4338 4.02544 22.763 4.27954 23.0057C4.53364 23.2484 4.87827 23.3847 5.23762 23.3847H20.1418C20.5011 23.3847 20.8458 23.2484 21.0999 23.0057C21.354 22.763 21.4967 22.4338 21.4967 22.0906V18.687C21.4991 18.3587 21.3707 18.0418 21.1377 17.8005ZM20.1418 22.0906H5.23762V18.6805C6.19774 17.7149 7.35353 16.946 8.63466 16.4205C9.91579 15.8951 11.2955 15.6241 12.6897 15.6241C14.084 15.6241 15.4636 15.8951 16.7448 16.4205C18.0259 16.946 19.1817 17.7149 20.1418 18.6805V22.0906Z" fill="#79c3f4"/>
</svg>
